M48
; DRILL file {KiCad (5.1.5)-3} date 2020/06/26 19:45:52
; FORMAT={-:-/ absolute / metric / decimal}
; #@! TF.CreationDate,2020-06-26T19:45:52+09:00
; #@! TF.GenerationSoftware,Kicad,Pcbnew,(5.1.5)-3
; #@! TF.FileFunction,Plated,1,2,PTH
FMAT,2
METRIC
T1C0.400
T2C0.500
T3C0.950
T4C1.000
T5C1.100
T6C3.200
%
G90
G05
T1
X33.59Y-45.085
X33.59Y-46.355
X42.61Y-45.085
X42.61Y-46.355
T2
X14.11Y-62.23
X14.813Y-60.533
X14.813Y-63.927
X16.51Y-59.83
X16.51Y-64.63
X18.207Y-60.533
X18.207Y-63.927
X18.91Y-62.23
X57.29Y-62.23
X57.993Y-60.533
X57.993Y-63.927
X59.69Y-59.83
X59.69Y-64.63
X61.387Y-60.533
X61.387Y-63.927
X62.09Y-62.23
X57.29Y-16.51
X57.993Y-14.813
X57.993Y-18.207
X59.69Y-14.11
X59.69Y-18.91
X61.387Y-14.813
X61.387Y-18.207
X62.09Y-16.51
X14.11Y-16.51
X14.813Y-14.813
X14.813Y-18.207
X16.51Y-14.11
X16.51Y-18.91
X18.207Y-14.813
X18.207Y-18.207
X18.91Y-16.51
T3
X22.225Y-51.435
X22.225Y-53.935
X22.225Y-56.435
T4
X45.72Y-56.515
X48.22Y-56.515
X22.225Y-33.02
X22.225Y-35.52
X22.225Y-23.495
X22.225Y-25.995
X53.975Y-33.06
X53.975Y-35.56
X36.83Y-56.515
X39.33Y-56.515
X53.975Y-42.585
X53.975Y-45.085
X27.94Y-56.515
X30.44Y-56.515
X53.825Y-50.745
X53.825Y-55.245
X60.325Y-50.745
X60.325Y-55.245
X53.975Y-23.535
X53.975Y-26.035
X22.225Y-42.545
X22.225Y-45.045
T5
X30.48Y-20.32
X30.48Y-22.86
X30.48Y-25.4
X30.48Y-27.94
X30.48Y-30.48
X30.48Y-33.02
X30.48Y-35.56
X30.48Y-38.1
X30.48Y-40.64
X30.48Y-43.18
X30.48Y-45.72
X30.48Y-48.26
X45.72Y-20.32
X45.72Y-22.86
X45.72Y-25.4
X45.72Y-27.94
X45.72Y-30.48
X45.72Y-33.02
X45.72Y-35.56
X45.72Y-38.1
X45.72Y-40.64
X45.72Y-43.18
X45.72Y-45.72
X45.72Y-48.26
T6
X59.69Y-16.51
X16.51Y-16.51
X16.51Y-62.23
X59.69Y-62.23
T0
M30
