G04 #@! TF.GenerationSoftware,KiCad,Pcbnew,(5.1.5)-3*
G04 #@! TF.CreationDate,2020-04-30T20:21:50+09:00*
G04 #@! TF.ProjectId,sif,7369662e-6b69-4636-9164-5f7063625858,rev?*
G04 #@! TF.SameCoordinates,Original*
G04 #@! TF.FileFunction,Copper,L1,Top*
G04 #@! TF.FilePolarity,Positive*
%FSLAX46Y46*%
G04 Gerber Fmt 4.6, Leading zero omitted, Abs format (unit mm)*
G04 Created by KiCad (PCBNEW (5.1.5)-3) date 2020-04-30 20:21:50*
%MOMM*%
%LPD*%
G04 APERTURE LIST*
%ADD10C,0.150000*%
%ADD11O,2.000000X1.700000*%
%ADD12O,1.700000X2.000000*%
%ADD13C,1.600000*%
%ADD14R,1.600000X1.600000*%
%ADD15C,0.800000*%
%ADD16C,6.400000*%
%ADD17C,0.500000*%
G04 APERTURE END LIST*
D10*
X12700000Y-16510000D02*
X12700000Y-62230000D01*
X59690000Y-12700000D02*
X16510000Y-12700000D01*
X63500000Y-62230000D02*
X63500000Y-16510000D01*
X16510000Y-66040000D02*
X59690000Y-66040000D01*
X16510000Y-66040000D02*
G75*
G02X12700000Y-62230000I0J3810000D01*
G01*
X63500000Y-62230000D02*
G75*
G02X59690000Y-66040000I-3810000J0D01*
G01*
X59690000Y-12700000D02*
G75*
G02X63500000Y-16510000I0J-3810000D01*
G01*
X12700000Y-16510000D02*
G75*
G02X16510000Y-12700000I3810000J0D01*
G01*
G04 #@! TA.AperFunction,ComponentPad*
G36*
X54749504Y-46141204D02*
G01*
X54773773Y-46144804D01*
X54797571Y-46150765D01*
X54820671Y-46159030D01*
X54842849Y-46169520D01*
X54863893Y-46182133D01*
X54883598Y-46196747D01*
X54901777Y-46213223D01*
X54918253Y-46231402D01*
X54932867Y-46251107D01*
X54945480Y-46272151D01*
X54955970Y-46294329D01*
X54964235Y-46317429D01*
X54970196Y-46341227D01*
X54973796Y-46365496D01*
X54975000Y-46390000D01*
X54975000Y-47590000D01*
X54973796Y-47614504D01*
X54970196Y-47638773D01*
X54964235Y-47662571D01*
X54955970Y-47685671D01*
X54945480Y-47707849D01*
X54932867Y-47728893D01*
X54918253Y-47748598D01*
X54901777Y-47766777D01*
X54883598Y-47783253D01*
X54863893Y-47797867D01*
X54842849Y-47810480D01*
X54820671Y-47820970D01*
X54797571Y-47829235D01*
X54773773Y-47835196D01*
X54749504Y-47838796D01*
X54725000Y-47840000D01*
X53225000Y-47840000D01*
X53200496Y-47838796D01*
X53176227Y-47835196D01*
X53152429Y-47829235D01*
X53129329Y-47820970D01*
X53107151Y-47810480D01*
X53086107Y-47797867D01*
X53066402Y-47783253D01*
X53048223Y-47766777D01*
X53031747Y-47748598D01*
X53017133Y-47728893D01*
X53004520Y-47707849D01*
X52994030Y-47685671D01*
X52985765Y-47662571D01*
X52979804Y-47638773D01*
X52976204Y-47614504D01*
X52975000Y-47590000D01*
X52975000Y-46390000D01*
X52976204Y-46365496D01*
X52979804Y-46341227D01*
X52985765Y-46317429D01*
X52994030Y-46294329D01*
X53004520Y-46272151D01*
X53017133Y-46251107D01*
X53031747Y-46231402D01*
X53048223Y-46213223D01*
X53066402Y-46196747D01*
X53086107Y-46182133D01*
X53107151Y-46169520D01*
X53129329Y-46159030D01*
X53152429Y-46150765D01*
X53176227Y-46144804D01*
X53200496Y-46141204D01*
X53225000Y-46140000D01*
X54725000Y-46140000D01*
X54749504Y-46141204D01*
G37*
G04 #@! TD.AperFunction*
D11*
X53975000Y-44490000D03*
G04 #@! TA.AperFunction,ComponentPad*
D10*
G36*
X50154504Y-55516204D02*
G01*
X50178773Y-55519804D01*
X50202571Y-55525765D01*
X50225671Y-55534030D01*
X50247849Y-55544520D01*
X50268893Y-55557133D01*
X50288598Y-55571747D01*
X50306777Y-55588223D01*
X50323253Y-55606402D01*
X50337867Y-55626107D01*
X50350480Y-55647151D01*
X50360970Y-55669329D01*
X50369235Y-55692429D01*
X50375196Y-55716227D01*
X50378796Y-55740496D01*
X50380000Y-55765000D01*
X50380000Y-57265000D01*
X50378796Y-57289504D01*
X50375196Y-57313773D01*
X50369235Y-57337571D01*
X50360970Y-57360671D01*
X50350480Y-57382849D01*
X50337867Y-57403893D01*
X50323253Y-57423598D01*
X50306777Y-57441777D01*
X50288598Y-57458253D01*
X50268893Y-57472867D01*
X50247849Y-57485480D01*
X50225671Y-57495970D01*
X50202571Y-57504235D01*
X50178773Y-57510196D01*
X50154504Y-57513796D01*
X50130000Y-57515000D01*
X48930000Y-57515000D01*
X48905496Y-57513796D01*
X48881227Y-57510196D01*
X48857429Y-57504235D01*
X48834329Y-57495970D01*
X48812151Y-57485480D01*
X48791107Y-57472867D01*
X48771402Y-57458253D01*
X48753223Y-57441777D01*
X48736747Y-57423598D01*
X48722133Y-57403893D01*
X48709520Y-57382849D01*
X48699030Y-57360671D01*
X48690765Y-57337571D01*
X48684804Y-57313773D01*
X48681204Y-57289504D01*
X48680000Y-57265000D01*
X48680000Y-55765000D01*
X48681204Y-55740496D01*
X48684804Y-55716227D01*
X48690765Y-55692429D01*
X48699030Y-55669329D01*
X48709520Y-55647151D01*
X48722133Y-55626107D01*
X48736747Y-55606402D01*
X48753223Y-55588223D01*
X48771402Y-55571747D01*
X48791107Y-55557133D01*
X48812151Y-55544520D01*
X48834329Y-55534030D01*
X48857429Y-55525765D01*
X48881227Y-55519804D01*
X48905496Y-55516204D01*
X48930000Y-55515000D01*
X50130000Y-55515000D01*
X50154504Y-55516204D01*
G37*
G04 #@! TD.AperFunction*
D12*
X52030000Y-56515000D03*
G04 #@! TA.AperFunction,ComponentPad*
D10*
G36*
X54749504Y-35981204D02*
G01*
X54773773Y-35984804D01*
X54797571Y-35990765D01*
X54820671Y-35999030D01*
X54842849Y-36009520D01*
X54863893Y-36022133D01*
X54883598Y-36036747D01*
X54901777Y-36053223D01*
X54918253Y-36071402D01*
X54932867Y-36091107D01*
X54945480Y-36112151D01*
X54955970Y-36134329D01*
X54964235Y-36157429D01*
X54970196Y-36181227D01*
X54973796Y-36205496D01*
X54975000Y-36230000D01*
X54975000Y-37430000D01*
X54973796Y-37454504D01*
X54970196Y-37478773D01*
X54964235Y-37502571D01*
X54955970Y-37525671D01*
X54945480Y-37547849D01*
X54932867Y-37568893D01*
X54918253Y-37588598D01*
X54901777Y-37606777D01*
X54883598Y-37623253D01*
X54863893Y-37637867D01*
X54842849Y-37650480D01*
X54820671Y-37660970D01*
X54797571Y-37669235D01*
X54773773Y-37675196D01*
X54749504Y-37678796D01*
X54725000Y-37680000D01*
X53225000Y-37680000D01*
X53200496Y-37678796D01*
X53176227Y-37675196D01*
X53152429Y-37669235D01*
X53129329Y-37660970D01*
X53107151Y-37650480D01*
X53086107Y-37637867D01*
X53066402Y-37623253D01*
X53048223Y-37606777D01*
X53031747Y-37588598D01*
X53017133Y-37568893D01*
X53004520Y-37547849D01*
X52994030Y-37525671D01*
X52985765Y-37502571D01*
X52979804Y-37478773D01*
X52976204Y-37454504D01*
X52975000Y-37430000D01*
X52975000Y-36230000D01*
X52976204Y-36205496D01*
X52979804Y-36181227D01*
X52985765Y-36157429D01*
X52994030Y-36134329D01*
X53004520Y-36112151D01*
X53017133Y-36091107D01*
X53031747Y-36071402D01*
X53048223Y-36053223D01*
X53066402Y-36036747D01*
X53086107Y-36022133D01*
X53107151Y-36009520D01*
X53129329Y-35999030D01*
X53152429Y-35990765D01*
X53176227Y-35984804D01*
X53200496Y-35981204D01*
X53225000Y-35980000D01*
X54725000Y-35980000D01*
X54749504Y-35981204D01*
G37*
G04 #@! TD.AperFunction*
D11*
X53975000Y-34330000D03*
G04 #@! TA.AperFunction,ComponentPad*
D10*
G36*
X54749504Y-25821204D02*
G01*
X54773773Y-25824804D01*
X54797571Y-25830765D01*
X54820671Y-25839030D01*
X54842849Y-25849520D01*
X54863893Y-25862133D01*
X54883598Y-25876747D01*
X54901777Y-25893223D01*
X54918253Y-25911402D01*
X54932867Y-25931107D01*
X54945480Y-25952151D01*
X54955970Y-25974329D01*
X54964235Y-25997429D01*
X54970196Y-26021227D01*
X54973796Y-26045496D01*
X54975000Y-26070000D01*
X54975000Y-27270000D01*
X54973796Y-27294504D01*
X54970196Y-27318773D01*
X54964235Y-27342571D01*
X54955970Y-27365671D01*
X54945480Y-27387849D01*
X54932867Y-27408893D01*
X54918253Y-27428598D01*
X54901777Y-27446777D01*
X54883598Y-27463253D01*
X54863893Y-27477867D01*
X54842849Y-27490480D01*
X54820671Y-27500970D01*
X54797571Y-27509235D01*
X54773773Y-27515196D01*
X54749504Y-27518796D01*
X54725000Y-27520000D01*
X53225000Y-27520000D01*
X53200496Y-27518796D01*
X53176227Y-27515196D01*
X53152429Y-27509235D01*
X53129329Y-27500970D01*
X53107151Y-27490480D01*
X53086107Y-27477867D01*
X53066402Y-27463253D01*
X53048223Y-27446777D01*
X53031747Y-27428598D01*
X53017133Y-27408893D01*
X53004520Y-27387849D01*
X52994030Y-27365671D01*
X52985765Y-27342571D01*
X52979804Y-27318773D01*
X52976204Y-27294504D01*
X52975000Y-27270000D01*
X52975000Y-26070000D01*
X52976204Y-26045496D01*
X52979804Y-26021227D01*
X52985765Y-25997429D01*
X52994030Y-25974329D01*
X53004520Y-25952151D01*
X53017133Y-25931107D01*
X53031747Y-25911402D01*
X53048223Y-25893223D01*
X53066402Y-25876747D01*
X53086107Y-25862133D01*
X53107151Y-25849520D01*
X53129329Y-25839030D01*
X53152429Y-25830765D01*
X53176227Y-25824804D01*
X53200496Y-25821204D01*
X53225000Y-25820000D01*
X54725000Y-25820000D01*
X54749504Y-25821204D01*
G37*
G04 #@! TD.AperFunction*
D11*
X53975000Y-24170000D03*
G04 #@! TA.AperFunction,ComponentPad*
D10*
G36*
X37454504Y-55516204D02*
G01*
X37478773Y-55519804D01*
X37502571Y-55525765D01*
X37525671Y-55534030D01*
X37547849Y-55544520D01*
X37568893Y-55557133D01*
X37588598Y-55571747D01*
X37606777Y-55588223D01*
X37623253Y-55606402D01*
X37637867Y-55626107D01*
X37650480Y-55647151D01*
X37660970Y-55669329D01*
X37669235Y-55692429D01*
X37675196Y-55716227D01*
X37678796Y-55740496D01*
X37680000Y-55765000D01*
X37680000Y-57265000D01*
X37678796Y-57289504D01*
X37675196Y-57313773D01*
X37669235Y-57337571D01*
X37660970Y-57360671D01*
X37650480Y-57382849D01*
X37637867Y-57403893D01*
X37623253Y-57423598D01*
X37606777Y-57441777D01*
X37588598Y-57458253D01*
X37568893Y-57472867D01*
X37547849Y-57485480D01*
X37525671Y-57495970D01*
X37502571Y-57504235D01*
X37478773Y-57510196D01*
X37454504Y-57513796D01*
X37430000Y-57515000D01*
X36230000Y-57515000D01*
X36205496Y-57513796D01*
X36181227Y-57510196D01*
X36157429Y-57504235D01*
X36134329Y-57495970D01*
X36112151Y-57485480D01*
X36091107Y-57472867D01*
X36071402Y-57458253D01*
X36053223Y-57441777D01*
X36036747Y-57423598D01*
X36022133Y-57403893D01*
X36009520Y-57382849D01*
X35999030Y-57360671D01*
X35990765Y-57337571D01*
X35984804Y-57313773D01*
X35981204Y-57289504D01*
X35980000Y-57265000D01*
X35980000Y-55765000D01*
X35981204Y-55740496D01*
X35984804Y-55716227D01*
X35990765Y-55692429D01*
X35999030Y-55669329D01*
X36009520Y-55647151D01*
X36022133Y-55626107D01*
X36036747Y-55606402D01*
X36053223Y-55588223D01*
X36071402Y-55571747D01*
X36091107Y-55557133D01*
X36112151Y-55544520D01*
X36134329Y-55534030D01*
X36157429Y-55525765D01*
X36181227Y-55519804D01*
X36205496Y-55516204D01*
X36230000Y-55515000D01*
X37430000Y-55515000D01*
X37454504Y-55516204D01*
G37*
G04 #@! TD.AperFunction*
D12*
X39330000Y-56515000D03*
G04 #@! TA.AperFunction,ComponentPad*
D10*
G36*
X24754504Y-55516204D02*
G01*
X24778773Y-55519804D01*
X24802571Y-55525765D01*
X24825671Y-55534030D01*
X24847849Y-55544520D01*
X24868893Y-55557133D01*
X24888598Y-55571747D01*
X24906777Y-55588223D01*
X24923253Y-55606402D01*
X24937867Y-55626107D01*
X24950480Y-55647151D01*
X24960970Y-55669329D01*
X24969235Y-55692429D01*
X24975196Y-55716227D01*
X24978796Y-55740496D01*
X24980000Y-55765000D01*
X24980000Y-57265000D01*
X24978796Y-57289504D01*
X24975196Y-57313773D01*
X24969235Y-57337571D01*
X24960970Y-57360671D01*
X24950480Y-57382849D01*
X24937867Y-57403893D01*
X24923253Y-57423598D01*
X24906777Y-57441777D01*
X24888598Y-57458253D01*
X24868893Y-57472867D01*
X24847849Y-57485480D01*
X24825671Y-57495970D01*
X24802571Y-57504235D01*
X24778773Y-57510196D01*
X24754504Y-57513796D01*
X24730000Y-57515000D01*
X23530000Y-57515000D01*
X23505496Y-57513796D01*
X23481227Y-57510196D01*
X23457429Y-57504235D01*
X23434329Y-57495970D01*
X23412151Y-57485480D01*
X23391107Y-57472867D01*
X23371402Y-57458253D01*
X23353223Y-57441777D01*
X23336747Y-57423598D01*
X23322133Y-57403893D01*
X23309520Y-57382849D01*
X23299030Y-57360671D01*
X23290765Y-57337571D01*
X23284804Y-57313773D01*
X23281204Y-57289504D01*
X23280000Y-57265000D01*
X23280000Y-55765000D01*
X23281204Y-55740496D01*
X23284804Y-55716227D01*
X23290765Y-55692429D01*
X23299030Y-55669329D01*
X23309520Y-55647151D01*
X23322133Y-55626107D01*
X23336747Y-55606402D01*
X23353223Y-55588223D01*
X23371402Y-55571747D01*
X23391107Y-55557133D01*
X23412151Y-55544520D01*
X23434329Y-55534030D01*
X23457429Y-55525765D01*
X23481227Y-55519804D01*
X23505496Y-55516204D01*
X23530000Y-55515000D01*
X24730000Y-55515000D01*
X24754504Y-55516204D01*
G37*
G04 #@! TD.AperFunction*
D12*
X26630000Y-56515000D03*
G04 #@! TA.AperFunction,ComponentPad*
D10*
G36*
X22999504Y-43601204D02*
G01*
X23023773Y-43604804D01*
X23047571Y-43610765D01*
X23070671Y-43619030D01*
X23092849Y-43629520D01*
X23113893Y-43642133D01*
X23133598Y-43656747D01*
X23151777Y-43673223D01*
X23168253Y-43691402D01*
X23182867Y-43711107D01*
X23195480Y-43732151D01*
X23205970Y-43754329D01*
X23214235Y-43777429D01*
X23220196Y-43801227D01*
X23223796Y-43825496D01*
X23225000Y-43850000D01*
X23225000Y-45050000D01*
X23223796Y-45074504D01*
X23220196Y-45098773D01*
X23214235Y-45122571D01*
X23205970Y-45145671D01*
X23195480Y-45167849D01*
X23182867Y-45188893D01*
X23168253Y-45208598D01*
X23151777Y-45226777D01*
X23133598Y-45243253D01*
X23113893Y-45257867D01*
X23092849Y-45270480D01*
X23070671Y-45280970D01*
X23047571Y-45289235D01*
X23023773Y-45295196D01*
X22999504Y-45298796D01*
X22975000Y-45300000D01*
X21475000Y-45300000D01*
X21450496Y-45298796D01*
X21426227Y-45295196D01*
X21402429Y-45289235D01*
X21379329Y-45280970D01*
X21357151Y-45270480D01*
X21336107Y-45257867D01*
X21316402Y-45243253D01*
X21298223Y-45226777D01*
X21281747Y-45208598D01*
X21267133Y-45188893D01*
X21254520Y-45167849D01*
X21244030Y-45145671D01*
X21235765Y-45122571D01*
X21229804Y-45098773D01*
X21226204Y-45074504D01*
X21225000Y-45050000D01*
X21225000Y-43850000D01*
X21226204Y-43825496D01*
X21229804Y-43801227D01*
X21235765Y-43777429D01*
X21244030Y-43754329D01*
X21254520Y-43732151D01*
X21267133Y-43711107D01*
X21281747Y-43691402D01*
X21298223Y-43673223D01*
X21316402Y-43656747D01*
X21336107Y-43642133D01*
X21357151Y-43629520D01*
X21379329Y-43619030D01*
X21402429Y-43610765D01*
X21426227Y-43604804D01*
X21450496Y-43601204D01*
X21475000Y-43600000D01*
X22975000Y-43600000D01*
X22999504Y-43601204D01*
G37*
G04 #@! TD.AperFunction*
D11*
X22225000Y-46950000D03*
G04 #@! TA.AperFunction,ComponentPad*
D10*
G36*
X22999504Y-33441204D02*
G01*
X23023773Y-33444804D01*
X23047571Y-33450765D01*
X23070671Y-33459030D01*
X23092849Y-33469520D01*
X23113893Y-33482133D01*
X23133598Y-33496747D01*
X23151777Y-33513223D01*
X23168253Y-33531402D01*
X23182867Y-33551107D01*
X23195480Y-33572151D01*
X23205970Y-33594329D01*
X23214235Y-33617429D01*
X23220196Y-33641227D01*
X23223796Y-33665496D01*
X23225000Y-33690000D01*
X23225000Y-34890000D01*
X23223796Y-34914504D01*
X23220196Y-34938773D01*
X23214235Y-34962571D01*
X23205970Y-34985671D01*
X23195480Y-35007849D01*
X23182867Y-35028893D01*
X23168253Y-35048598D01*
X23151777Y-35066777D01*
X23133598Y-35083253D01*
X23113893Y-35097867D01*
X23092849Y-35110480D01*
X23070671Y-35120970D01*
X23047571Y-35129235D01*
X23023773Y-35135196D01*
X22999504Y-35138796D01*
X22975000Y-35140000D01*
X21475000Y-35140000D01*
X21450496Y-35138796D01*
X21426227Y-35135196D01*
X21402429Y-35129235D01*
X21379329Y-35120970D01*
X21357151Y-35110480D01*
X21336107Y-35097867D01*
X21316402Y-35083253D01*
X21298223Y-35066777D01*
X21281747Y-35048598D01*
X21267133Y-35028893D01*
X21254520Y-35007849D01*
X21244030Y-34985671D01*
X21235765Y-34962571D01*
X21229804Y-34938773D01*
X21226204Y-34914504D01*
X21225000Y-34890000D01*
X21225000Y-33690000D01*
X21226204Y-33665496D01*
X21229804Y-33641227D01*
X21235765Y-33617429D01*
X21244030Y-33594329D01*
X21254520Y-33572151D01*
X21267133Y-33551107D01*
X21281747Y-33531402D01*
X21298223Y-33513223D01*
X21316402Y-33496747D01*
X21336107Y-33482133D01*
X21357151Y-33469520D01*
X21379329Y-33459030D01*
X21402429Y-33450765D01*
X21426227Y-33444804D01*
X21450496Y-33441204D01*
X21475000Y-33440000D01*
X22975000Y-33440000D01*
X22999504Y-33441204D01*
G37*
G04 #@! TD.AperFunction*
D11*
X22225000Y-36790000D03*
G04 #@! TA.AperFunction,ComponentPad*
D10*
G36*
X22999504Y-23281204D02*
G01*
X23023773Y-23284804D01*
X23047571Y-23290765D01*
X23070671Y-23299030D01*
X23092849Y-23309520D01*
X23113893Y-23322133D01*
X23133598Y-23336747D01*
X23151777Y-23353223D01*
X23168253Y-23371402D01*
X23182867Y-23391107D01*
X23195480Y-23412151D01*
X23205970Y-23434329D01*
X23214235Y-23457429D01*
X23220196Y-23481227D01*
X23223796Y-23505496D01*
X23225000Y-23530000D01*
X23225000Y-24730000D01*
X23223796Y-24754504D01*
X23220196Y-24778773D01*
X23214235Y-24802571D01*
X23205970Y-24825671D01*
X23195480Y-24847849D01*
X23182867Y-24868893D01*
X23168253Y-24888598D01*
X23151777Y-24906777D01*
X23133598Y-24923253D01*
X23113893Y-24937867D01*
X23092849Y-24950480D01*
X23070671Y-24960970D01*
X23047571Y-24969235D01*
X23023773Y-24975196D01*
X22999504Y-24978796D01*
X22975000Y-24980000D01*
X21475000Y-24980000D01*
X21450496Y-24978796D01*
X21426227Y-24975196D01*
X21402429Y-24969235D01*
X21379329Y-24960970D01*
X21357151Y-24950480D01*
X21336107Y-24937867D01*
X21316402Y-24923253D01*
X21298223Y-24906777D01*
X21281747Y-24888598D01*
X21267133Y-24868893D01*
X21254520Y-24847849D01*
X21244030Y-24825671D01*
X21235765Y-24802571D01*
X21229804Y-24778773D01*
X21226204Y-24754504D01*
X21225000Y-24730000D01*
X21225000Y-23530000D01*
X21226204Y-23505496D01*
X21229804Y-23481227D01*
X21235765Y-23457429D01*
X21244030Y-23434329D01*
X21254520Y-23412151D01*
X21267133Y-23391107D01*
X21281747Y-23371402D01*
X21298223Y-23353223D01*
X21316402Y-23336747D01*
X21336107Y-23322133D01*
X21357151Y-23309520D01*
X21379329Y-23299030D01*
X21402429Y-23290765D01*
X21426227Y-23284804D01*
X21450496Y-23281204D01*
X21475000Y-23280000D01*
X22975000Y-23280000D01*
X22999504Y-23281204D01*
G37*
G04 #@! TD.AperFunction*
D11*
X22225000Y-26630000D03*
D13*
X45720000Y-20320000D03*
X45720000Y-22860000D03*
X45720000Y-25400000D03*
X45720000Y-27940000D03*
X45720000Y-30480000D03*
X45720000Y-33020000D03*
X45720000Y-35560000D03*
X45720000Y-38100000D03*
X45720000Y-40640000D03*
X45720000Y-43180000D03*
X45720000Y-45720000D03*
X45720000Y-48260000D03*
X30480000Y-48260000D03*
X30480000Y-45720000D03*
X30480000Y-43180000D03*
X30480000Y-40640000D03*
X30480000Y-38100000D03*
X30480000Y-35560000D03*
X30480000Y-33020000D03*
X30480000Y-30480000D03*
X30480000Y-27940000D03*
X30480000Y-25400000D03*
X30480000Y-22860000D03*
D14*
X30480000Y-20320000D03*
D15*
X61387056Y-60532944D03*
X59690000Y-59830000D03*
X57992944Y-60532944D03*
X57290000Y-62230000D03*
X57992944Y-63927056D03*
X59690000Y-64630000D03*
X61387056Y-63927056D03*
X62090000Y-62230000D03*
D16*
X59690000Y-62230000D03*
D15*
X18207056Y-60532944D03*
X16510000Y-59830000D03*
X14812944Y-60532944D03*
X14110000Y-62230000D03*
X14812944Y-63927056D03*
X16510000Y-64630000D03*
X18207056Y-63927056D03*
X18910000Y-62230000D03*
D16*
X16510000Y-62230000D03*
D15*
X18207056Y-14812944D03*
X16510000Y-14110000D03*
X14812944Y-14812944D03*
X14110000Y-16510000D03*
X14812944Y-18207056D03*
X16510000Y-18910000D03*
X18207056Y-18207056D03*
X18910000Y-16510000D03*
D16*
X16510000Y-16510000D03*
D15*
X61387056Y-14812944D03*
X59690000Y-14110000D03*
X57992944Y-14812944D03*
X57290000Y-16510000D03*
X57992944Y-18207056D03*
X59690000Y-18910000D03*
X61387056Y-18207056D03*
X62090000Y-16510000D03*
D16*
X59690000Y-16510000D03*
D15*
X40640000Y-43180000D03*
X40640000Y-48260000D03*
X35560000Y-43180000D03*
X35560000Y-48260000D03*
X38100000Y-44450000D03*
X38100000Y-46990000D03*
D17*
X40640000Y-43180000D02*
X40640000Y-48260000D01*
X35560000Y-43180000D02*
X35560000Y-48260000D01*
X38100000Y-44450000D02*
X38100000Y-46990000D01*
M02*
