G04 #@! TF.GenerationSoftware,KiCad,Pcbnew,(5.1.5)-3*
G04 #@! TF.CreationDate,2020-06-26T19:45:29+09:00*
G04 #@! TF.ProjectId,sif,7369662e-6b69-4636-9164-5f7063625858,rev?*
G04 #@! TF.SameCoordinates,Original*
G04 #@! TF.FileFunction,Soldermask,Bot*
G04 #@! TF.FilePolarity,Negative*
%FSLAX46Y46*%
G04 Gerber Fmt 4.6, Leading zero omitted, Abs format (unit mm)*
G04 Created by KiCad (PCBNEW (5.1.5)-3) date 2020-06-26 19:45:29*
%MOMM*%
%LPD*%
G04 APERTURE LIST*
%ADD10C,0.150000*%
G04 APERTURE END LIST*
D10*
X12700000Y-16510000D02*
X12700000Y-62230000D01*
X59690000Y-12700000D02*
X16510000Y-12700000D01*
X63500000Y-62230000D02*
X63500000Y-16510000D01*
X16510000Y-66040000D02*
X59690000Y-66040000D01*
X16510000Y-66040000D02*
G75*
G02X12700000Y-62230000I0J3810000D01*
G01*
X63500000Y-62230000D02*
G75*
G02X59690000Y-66040000I-3810000J0D01*
G01*
X59690000Y-12700000D02*
G75*
G02X63500000Y-16510000I0J-3810000D01*
G01*
X12700000Y-16510000D02*
G75*
G02X16510000Y-12700000I3810000J0D01*
G01*
G36*
X60324239Y-59041467D02*
G01*
X60638282Y-59103934D01*
X61229926Y-59349001D01*
X61762392Y-59704784D01*
X62215216Y-60157608D01*
X62570999Y-60690074D01*
X62816066Y-61281718D01*
X62816066Y-61281719D01*
X62941000Y-61909803D01*
X62941000Y-62550197D01*
X62878533Y-62864239D01*
X62816066Y-63178282D01*
X62570999Y-63769926D01*
X62215216Y-64302392D01*
X61762392Y-64755216D01*
X61229926Y-65110999D01*
X60638282Y-65356066D01*
X60324239Y-65418533D01*
X60010197Y-65481000D01*
X59369803Y-65481000D01*
X59055761Y-65418533D01*
X58741718Y-65356066D01*
X58150074Y-65110999D01*
X57617608Y-64755216D01*
X57164784Y-64302392D01*
X56809001Y-63769926D01*
X56563934Y-63178282D01*
X56501467Y-62864239D01*
X56439000Y-62550197D01*
X56439000Y-61909803D01*
X56563934Y-61281719D01*
X56563934Y-61281718D01*
X56809001Y-60690074D01*
X57164784Y-60157608D01*
X57617608Y-59704784D01*
X58150074Y-59349001D01*
X58741718Y-59103934D01*
X59055761Y-59041467D01*
X59369803Y-58979000D01*
X60010197Y-58979000D01*
X60324239Y-59041467D01*
G37*
G36*
X17144239Y-59041467D02*
G01*
X17458282Y-59103934D01*
X18049926Y-59349001D01*
X18582392Y-59704784D01*
X19035216Y-60157608D01*
X19390999Y-60690074D01*
X19636066Y-61281718D01*
X19636066Y-61281719D01*
X19761000Y-61909803D01*
X19761000Y-62550197D01*
X19698533Y-62864239D01*
X19636066Y-63178282D01*
X19390999Y-63769926D01*
X19035216Y-64302392D01*
X18582392Y-64755216D01*
X18049926Y-65110999D01*
X17458282Y-65356066D01*
X17144239Y-65418533D01*
X16830197Y-65481000D01*
X16189803Y-65481000D01*
X15875761Y-65418533D01*
X15561718Y-65356066D01*
X14970074Y-65110999D01*
X14437608Y-64755216D01*
X13984784Y-64302392D01*
X13629001Y-63769926D01*
X13383934Y-63178282D01*
X13321467Y-62864239D01*
X13259000Y-62550197D01*
X13259000Y-61909803D01*
X13383934Y-61281719D01*
X13383934Y-61281718D01*
X13629001Y-60690074D01*
X13984784Y-60157608D01*
X14437608Y-59704784D01*
X14970074Y-59349001D01*
X15561718Y-59103934D01*
X15875761Y-59041467D01*
X16189803Y-58979000D01*
X16830197Y-58979000D01*
X17144239Y-59041467D01*
G37*
G36*
X30616626Y-55477037D02*
G01*
X30786465Y-55528557D01*
X30786467Y-55528558D01*
X30942989Y-55612221D01*
X31080186Y-55724814D01*
X31137633Y-55794815D01*
X31192778Y-55862009D01*
X31276443Y-56018534D01*
X31327963Y-56188373D01*
X31341000Y-56320742D01*
X31341000Y-56709257D01*
X31327963Y-56841626D01*
X31276443Y-57011466D01*
X31192778Y-57167991D01*
X31176539Y-57187778D01*
X31080186Y-57305186D01*
X30985250Y-57383097D01*
X30942991Y-57417778D01*
X30786466Y-57501443D01*
X30616627Y-57552963D01*
X30440000Y-57570359D01*
X30263374Y-57552963D01*
X30093535Y-57501443D01*
X29937010Y-57417778D01*
X29799815Y-57305185D01*
X29687222Y-57167991D01*
X29603557Y-57011466D01*
X29552037Y-56841627D01*
X29539000Y-56709258D01*
X29539000Y-56320743D01*
X29552037Y-56188374D01*
X29603557Y-56018535D01*
X29642941Y-55944853D01*
X29687221Y-55862011D01*
X29799814Y-55724814D01*
X29901271Y-55641552D01*
X29937009Y-55612222D01*
X30093534Y-55528557D01*
X30263373Y-55477037D01*
X30440000Y-55459641D01*
X30616626Y-55477037D01*
G37*
G36*
X39506626Y-55477037D02*
G01*
X39676465Y-55528557D01*
X39676467Y-55528558D01*
X39832989Y-55612221D01*
X39970186Y-55724814D01*
X40027633Y-55794815D01*
X40082778Y-55862009D01*
X40166443Y-56018534D01*
X40217963Y-56188373D01*
X40231000Y-56320742D01*
X40231000Y-56709257D01*
X40217963Y-56841626D01*
X40166443Y-57011466D01*
X40082778Y-57167991D01*
X40066539Y-57187778D01*
X39970186Y-57305186D01*
X39875250Y-57383097D01*
X39832991Y-57417778D01*
X39676466Y-57501443D01*
X39506627Y-57552963D01*
X39330000Y-57570359D01*
X39153374Y-57552963D01*
X38983535Y-57501443D01*
X38827010Y-57417778D01*
X38689815Y-57305185D01*
X38577222Y-57167991D01*
X38493557Y-57011466D01*
X38442037Y-56841627D01*
X38429000Y-56709258D01*
X38429000Y-56320743D01*
X38442037Y-56188374D01*
X38493557Y-56018535D01*
X38532941Y-55944853D01*
X38577221Y-55862011D01*
X38689814Y-55724814D01*
X38791271Y-55641552D01*
X38827009Y-55612222D01*
X38983534Y-55528557D01*
X39153373Y-55477037D01*
X39330000Y-55459641D01*
X39506626Y-55477037D01*
G37*
G36*
X48396626Y-55477037D02*
G01*
X48566465Y-55528557D01*
X48566467Y-55528558D01*
X48722989Y-55612221D01*
X48860186Y-55724814D01*
X48917633Y-55794815D01*
X48972778Y-55862009D01*
X49056443Y-56018534D01*
X49107963Y-56188373D01*
X49121000Y-56320742D01*
X49121000Y-56709257D01*
X49107963Y-56841626D01*
X49056443Y-57011466D01*
X48972778Y-57167991D01*
X48956539Y-57187778D01*
X48860186Y-57305186D01*
X48765250Y-57383097D01*
X48722991Y-57417778D01*
X48566466Y-57501443D01*
X48396627Y-57552963D01*
X48220000Y-57570359D01*
X48043374Y-57552963D01*
X47873535Y-57501443D01*
X47717010Y-57417778D01*
X47579815Y-57305185D01*
X47467222Y-57167991D01*
X47383557Y-57011466D01*
X47332037Y-56841627D01*
X47319000Y-56709258D01*
X47319000Y-56320743D01*
X47332037Y-56188374D01*
X47383557Y-56018535D01*
X47422941Y-55944853D01*
X47467221Y-55862011D01*
X47579814Y-55724814D01*
X47681271Y-55641552D01*
X47717009Y-55612222D01*
X47873534Y-55528557D01*
X48043373Y-55477037D01*
X48220000Y-55459641D01*
X48396626Y-55477037D01*
G37*
G36*
X46478600Y-55467989D02*
G01*
X46511652Y-55478015D01*
X46542103Y-55494292D01*
X46568799Y-55516201D01*
X46590708Y-55542897D01*
X46606985Y-55573348D01*
X46617011Y-55606400D01*
X46621000Y-55646903D01*
X46621000Y-57383097D01*
X46617011Y-57423600D01*
X46606985Y-57456652D01*
X46590708Y-57487103D01*
X46568799Y-57513799D01*
X46542103Y-57535708D01*
X46511652Y-57551985D01*
X46478600Y-57562011D01*
X46438097Y-57566000D01*
X45001903Y-57566000D01*
X44961400Y-57562011D01*
X44928348Y-57551985D01*
X44897897Y-57535708D01*
X44871201Y-57513799D01*
X44849292Y-57487103D01*
X44833015Y-57456652D01*
X44822989Y-57423600D01*
X44819000Y-57383097D01*
X44819000Y-55646903D01*
X44822989Y-55606400D01*
X44833015Y-55573348D01*
X44849292Y-55542897D01*
X44871201Y-55516201D01*
X44897897Y-55494292D01*
X44928348Y-55478015D01*
X44961400Y-55467989D01*
X45001903Y-55464000D01*
X46438097Y-55464000D01*
X46478600Y-55467989D01*
G37*
G36*
X28698600Y-55467989D02*
G01*
X28731652Y-55478015D01*
X28762103Y-55494292D01*
X28788799Y-55516201D01*
X28810708Y-55542897D01*
X28826985Y-55573348D01*
X28837011Y-55606400D01*
X28841000Y-55646903D01*
X28841000Y-57383097D01*
X28837011Y-57423600D01*
X28826985Y-57456652D01*
X28810708Y-57487103D01*
X28788799Y-57513799D01*
X28762103Y-57535708D01*
X28731652Y-57551985D01*
X28698600Y-57562011D01*
X28658097Y-57566000D01*
X27221903Y-57566000D01*
X27181400Y-57562011D01*
X27148348Y-57551985D01*
X27117897Y-57535708D01*
X27091201Y-57513799D01*
X27069292Y-57487103D01*
X27053015Y-57456652D01*
X27042989Y-57423600D01*
X27039000Y-57383097D01*
X27039000Y-55646903D01*
X27042989Y-55606400D01*
X27053015Y-55573348D01*
X27069292Y-55542897D01*
X27091201Y-55516201D01*
X27117897Y-55494292D01*
X27148348Y-55478015D01*
X27181400Y-55467989D01*
X27221903Y-55464000D01*
X28658097Y-55464000D01*
X28698600Y-55467989D01*
G37*
G36*
X37588600Y-55467989D02*
G01*
X37621652Y-55478015D01*
X37652103Y-55494292D01*
X37678799Y-55516201D01*
X37700708Y-55542897D01*
X37716985Y-55573348D01*
X37727011Y-55606400D01*
X37731000Y-55646903D01*
X37731000Y-57383097D01*
X37727011Y-57423600D01*
X37716985Y-57456652D01*
X37700708Y-57487103D01*
X37678799Y-57513799D01*
X37652103Y-57535708D01*
X37621652Y-57551985D01*
X37588600Y-57562011D01*
X37548097Y-57566000D01*
X36111903Y-57566000D01*
X36071400Y-57562011D01*
X36038348Y-57551985D01*
X36007897Y-57535708D01*
X35981201Y-57513799D01*
X35959292Y-57487103D01*
X35943015Y-57456652D01*
X35932989Y-57423600D01*
X35929000Y-57383097D01*
X35929000Y-55646903D01*
X35932989Y-55606400D01*
X35943015Y-55573348D01*
X35959292Y-55542897D01*
X35981201Y-55516201D01*
X36007897Y-55494292D01*
X36038348Y-55478015D01*
X36071400Y-55467989D01*
X36111903Y-55464000D01*
X37548097Y-55464000D01*
X37588600Y-55467989D01*
G37*
G36*
X22460443Y-55540519D02*
G01*
X22526627Y-55547037D01*
X22696466Y-55598557D01*
X22852991Y-55682222D01*
X22888729Y-55711552D01*
X22990186Y-55794814D01*
X23045332Y-55862011D01*
X23102778Y-55932009D01*
X23186443Y-56088534D01*
X23237963Y-56258373D01*
X23255359Y-56435000D01*
X23237963Y-56611627D01*
X23186443Y-56781466D01*
X23102778Y-56937991D01*
X23073448Y-56973729D01*
X22990186Y-57075186D01*
X22888729Y-57158448D01*
X22852991Y-57187778D01*
X22696466Y-57271443D01*
X22526627Y-57322963D01*
X22460443Y-57329481D01*
X22394260Y-57336000D01*
X22055740Y-57336000D01*
X21989557Y-57329481D01*
X21923373Y-57322963D01*
X21753534Y-57271443D01*
X21597009Y-57187778D01*
X21561271Y-57158448D01*
X21459814Y-57075186D01*
X21376552Y-56973729D01*
X21347222Y-56937991D01*
X21263557Y-56781466D01*
X21212037Y-56611627D01*
X21194641Y-56435000D01*
X21212037Y-56258373D01*
X21263557Y-56088534D01*
X21347222Y-55932009D01*
X21404668Y-55862011D01*
X21459814Y-55794814D01*
X21561271Y-55711552D01*
X21597009Y-55682222D01*
X21753534Y-55598557D01*
X21923373Y-55547037D01*
X21989557Y-55540519D01*
X22055740Y-55534000D01*
X22394260Y-55534000D01*
X22460443Y-55540519D01*
G37*
G36*
X60438512Y-54348927D02*
G01*
X60587812Y-54378624D01*
X60751784Y-54446544D01*
X60899354Y-54545147D01*
X61024853Y-54670646D01*
X61123456Y-54818216D01*
X61191376Y-54982188D01*
X61226000Y-55156259D01*
X61226000Y-55333741D01*
X61191376Y-55507812D01*
X61123456Y-55671784D01*
X61024853Y-55819354D01*
X60899354Y-55944853D01*
X60751784Y-56043456D01*
X60587812Y-56111376D01*
X60438512Y-56141073D01*
X60413742Y-56146000D01*
X60236258Y-56146000D01*
X60211488Y-56141073D01*
X60062188Y-56111376D01*
X59898216Y-56043456D01*
X59750646Y-55944853D01*
X59625147Y-55819354D01*
X59526544Y-55671784D01*
X59458624Y-55507812D01*
X59424000Y-55333741D01*
X59424000Y-55156259D01*
X59458624Y-54982188D01*
X59526544Y-54818216D01*
X59625147Y-54670646D01*
X59750646Y-54545147D01*
X59898216Y-54446544D01*
X60062188Y-54378624D01*
X60211488Y-54348927D01*
X60236258Y-54344000D01*
X60413742Y-54344000D01*
X60438512Y-54348927D01*
G37*
G36*
X53938512Y-54348927D02*
G01*
X54087812Y-54378624D01*
X54251784Y-54446544D01*
X54399354Y-54545147D01*
X54524853Y-54670646D01*
X54623456Y-54818216D01*
X54691376Y-54982188D01*
X54726000Y-55156259D01*
X54726000Y-55333741D01*
X54691376Y-55507812D01*
X54623456Y-55671784D01*
X54524853Y-55819354D01*
X54399354Y-55944853D01*
X54251784Y-56043456D01*
X54087812Y-56111376D01*
X53938512Y-56141073D01*
X53913742Y-56146000D01*
X53736258Y-56146000D01*
X53711488Y-56141073D01*
X53562188Y-56111376D01*
X53398216Y-56043456D01*
X53250646Y-55944853D01*
X53125147Y-55819354D01*
X53026544Y-55671784D01*
X52958624Y-55507812D01*
X52924000Y-55333741D01*
X52924000Y-55156259D01*
X52958624Y-54982188D01*
X53026544Y-54818216D01*
X53125147Y-54670646D01*
X53250646Y-54545147D01*
X53398216Y-54446544D01*
X53562188Y-54378624D01*
X53711488Y-54348927D01*
X53736258Y-54344000D01*
X53913742Y-54344000D01*
X53938512Y-54348927D01*
G37*
G36*
X22460442Y-53040518D02*
G01*
X22526627Y-53047037D01*
X22696466Y-53098557D01*
X22852991Y-53182222D01*
X22888729Y-53211552D01*
X22990186Y-53294814D01*
X23073448Y-53396271D01*
X23102778Y-53432009D01*
X23186443Y-53588534D01*
X23237963Y-53758373D01*
X23255359Y-53935000D01*
X23237963Y-54111627D01*
X23186443Y-54281466D01*
X23102778Y-54437991D01*
X23073448Y-54473729D01*
X22990186Y-54575186D01*
X22888729Y-54658448D01*
X22852991Y-54687778D01*
X22696466Y-54771443D01*
X22526627Y-54822963D01*
X22460442Y-54829482D01*
X22394260Y-54836000D01*
X22055740Y-54836000D01*
X21989558Y-54829482D01*
X21923373Y-54822963D01*
X21753534Y-54771443D01*
X21597009Y-54687778D01*
X21561271Y-54658448D01*
X21459814Y-54575186D01*
X21376552Y-54473729D01*
X21347222Y-54437991D01*
X21263557Y-54281466D01*
X21212037Y-54111627D01*
X21194641Y-53935000D01*
X21212037Y-53758373D01*
X21263557Y-53588534D01*
X21347222Y-53432009D01*
X21376552Y-53396271D01*
X21459814Y-53294814D01*
X21561271Y-53211552D01*
X21597009Y-53182222D01*
X21753534Y-53098557D01*
X21923373Y-53047037D01*
X21989558Y-53040518D01*
X22055740Y-53034000D01*
X22394260Y-53034000D01*
X22460442Y-53040518D01*
G37*
G36*
X23108600Y-50537989D02*
G01*
X23141652Y-50548015D01*
X23172103Y-50564292D01*
X23198799Y-50586201D01*
X23220708Y-50612897D01*
X23236985Y-50643348D01*
X23247011Y-50676400D01*
X23251000Y-50716903D01*
X23251000Y-52153097D01*
X23247011Y-52193600D01*
X23236985Y-52226652D01*
X23220708Y-52257103D01*
X23198799Y-52283799D01*
X23172103Y-52305708D01*
X23141652Y-52321985D01*
X23108600Y-52332011D01*
X23068097Y-52336000D01*
X21381903Y-52336000D01*
X21341400Y-52332011D01*
X21308348Y-52321985D01*
X21277897Y-52305708D01*
X21251201Y-52283799D01*
X21229292Y-52257103D01*
X21213015Y-52226652D01*
X21202989Y-52193600D01*
X21199000Y-52153097D01*
X21199000Y-50716903D01*
X21202989Y-50676400D01*
X21213015Y-50643348D01*
X21229292Y-50612897D01*
X21251201Y-50586201D01*
X21277897Y-50564292D01*
X21308348Y-50548015D01*
X21341400Y-50537989D01*
X21381903Y-50534000D01*
X23068097Y-50534000D01*
X23108600Y-50537989D01*
G37*
G36*
X60438512Y-49848927D02*
G01*
X60587812Y-49878624D01*
X60751784Y-49946544D01*
X60899354Y-50045147D01*
X61024853Y-50170646D01*
X61123456Y-50318216D01*
X61191376Y-50482188D01*
X61226000Y-50656259D01*
X61226000Y-50833741D01*
X61191376Y-51007812D01*
X61123456Y-51171784D01*
X61024853Y-51319354D01*
X60899354Y-51444853D01*
X60751784Y-51543456D01*
X60587812Y-51611376D01*
X60438512Y-51641073D01*
X60413742Y-51646000D01*
X60236258Y-51646000D01*
X60211488Y-51641073D01*
X60062188Y-51611376D01*
X59898216Y-51543456D01*
X59750646Y-51444853D01*
X59625147Y-51319354D01*
X59526544Y-51171784D01*
X59458624Y-51007812D01*
X59424000Y-50833741D01*
X59424000Y-50656259D01*
X59458624Y-50482188D01*
X59526544Y-50318216D01*
X59625147Y-50170646D01*
X59750646Y-50045147D01*
X59898216Y-49946544D01*
X60062188Y-49878624D01*
X60211488Y-49848927D01*
X60236258Y-49844000D01*
X60413742Y-49844000D01*
X60438512Y-49848927D01*
G37*
G36*
X53938512Y-49848927D02*
G01*
X54087812Y-49878624D01*
X54251784Y-49946544D01*
X54399354Y-50045147D01*
X54524853Y-50170646D01*
X54623456Y-50318216D01*
X54691376Y-50482188D01*
X54726000Y-50656259D01*
X54726000Y-50833741D01*
X54691376Y-51007812D01*
X54623456Y-51171784D01*
X54524853Y-51319354D01*
X54399354Y-51444853D01*
X54251784Y-51543456D01*
X54087812Y-51611376D01*
X53938512Y-51641073D01*
X53913742Y-51646000D01*
X53736258Y-51646000D01*
X53711488Y-51641073D01*
X53562188Y-51611376D01*
X53398216Y-51543456D01*
X53250646Y-51444853D01*
X53125147Y-51319354D01*
X53026544Y-51171784D01*
X52958624Y-51007812D01*
X52924000Y-50833741D01*
X52924000Y-50656259D01*
X52958624Y-50482188D01*
X53026544Y-50318216D01*
X53125147Y-50170646D01*
X53250646Y-50045147D01*
X53398216Y-49946544D01*
X53562188Y-49878624D01*
X53711488Y-49848927D01*
X53736258Y-49844000D01*
X53913742Y-49844000D01*
X53938512Y-49848927D01*
G37*
G36*
X45968228Y-47441703D02*
G01*
X46123100Y-47505853D01*
X46262481Y-47598985D01*
X46381015Y-47717519D01*
X46474147Y-47856900D01*
X46538297Y-48011772D01*
X46571000Y-48176184D01*
X46571000Y-48343816D01*
X46538297Y-48508228D01*
X46474147Y-48663100D01*
X46381015Y-48802481D01*
X46262481Y-48921015D01*
X46123100Y-49014147D01*
X45968228Y-49078297D01*
X45803816Y-49111000D01*
X45636184Y-49111000D01*
X45471772Y-49078297D01*
X45316900Y-49014147D01*
X45177519Y-48921015D01*
X45058985Y-48802481D01*
X44965853Y-48663100D01*
X44901703Y-48508228D01*
X44869000Y-48343816D01*
X44869000Y-48176184D01*
X44901703Y-48011772D01*
X44965853Y-47856900D01*
X45058985Y-47717519D01*
X45177519Y-47598985D01*
X45316900Y-47505853D01*
X45471772Y-47441703D01*
X45636184Y-47409000D01*
X45803816Y-47409000D01*
X45968228Y-47441703D01*
G37*
G36*
X30728228Y-47441703D02*
G01*
X30883100Y-47505853D01*
X31022481Y-47598985D01*
X31141015Y-47717519D01*
X31234147Y-47856900D01*
X31298297Y-48011772D01*
X31331000Y-48176184D01*
X31331000Y-48343816D01*
X31298297Y-48508228D01*
X31234147Y-48663100D01*
X31141015Y-48802481D01*
X31022481Y-48921015D01*
X30883100Y-49014147D01*
X30728228Y-49078297D01*
X30563816Y-49111000D01*
X30396184Y-49111000D01*
X30231772Y-49078297D01*
X30076900Y-49014147D01*
X29937519Y-48921015D01*
X29818985Y-48802481D01*
X29725853Y-48663100D01*
X29661703Y-48508228D01*
X29629000Y-48343816D01*
X29629000Y-48176184D01*
X29661703Y-48011772D01*
X29725853Y-47856900D01*
X29818985Y-47717519D01*
X29937519Y-47598985D01*
X30076900Y-47505853D01*
X30231772Y-47441703D01*
X30396184Y-47409000D01*
X30563816Y-47409000D01*
X30728228Y-47441703D01*
G37*
G36*
X30728228Y-44901703D02*
G01*
X30883100Y-44965853D01*
X31022481Y-45058985D01*
X31141015Y-45177519D01*
X31234147Y-45316900D01*
X31298297Y-45471772D01*
X31331000Y-45636184D01*
X31331000Y-45803816D01*
X31298297Y-45968228D01*
X31234147Y-46123100D01*
X31141015Y-46262481D01*
X31022481Y-46381015D01*
X30883100Y-46474147D01*
X30728228Y-46538297D01*
X30563816Y-46571000D01*
X30396184Y-46571000D01*
X30231772Y-46538297D01*
X30076900Y-46474147D01*
X29937519Y-46381015D01*
X29818985Y-46262481D01*
X29725853Y-46123100D01*
X29661703Y-45968228D01*
X29629000Y-45803816D01*
X29629000Y-45636184D01*
X29661703Y-45471772D01*
X29725853Y-45316900D01*
X29818985Y-45177519D01*
X29937519Y-45058985D01*
X30076900Y-44965853D01*
X30231772Y-44901703D01*
X30396184Y-44869000D01*
X30563816Y-44869000D01*
X30728228Y-44901703D01*
G37*
G36*
X45968228Y-44901703D02*
G01*
X46123100Y-44965853D01*
X46262481Y-45058985D01*
X46381015Y-45177519D01*
X46474147Y-45316900D01*
X46538297Y-45471772D01*
X46571000Y-45636184D01*
X46571000Y-45803816D01*
X46538297Y-45968228D01*
X46474147Y-46123100D01*
X46381015Y-46262481D01*
X46262481Y-46381015D01*
X46123100Y-46474147D01*
X45968228Y-46538297D01*
X45803816Y-46571000D01*
X45636184Y-46571000D01*
X45471772Y-46538297D01*
X45316900Y-46474147D01*
X45177519Y-46381015D01*
X45058985Y-46262481D01*
X44965853Y-46123100D01*
X44901703Y-45968228D01*
X44869000Y-45803816D01*
X44869000Y-45636184D01*
X44901703Y-45471772D01*
X44965853Y-45316900D01*
X45058985Y-45177519D01*
X45177519Y-45058985D01*
X45316900Y-44965853D01*
X45471772Y-44901703D01*
X45636184Y-44869000D01*
X45803816Y-44869000D01*
X45968228Y-44901703D01*
G37*
G36*
X54883600Y-44187989D02*
G01*
X54916652Y-44198015D01*
X54947103Y-44214292D01*
X54973799Y-44236201D01*
X54995708Y-44262897D01*
X55011985Y-44293348D01*
X55022011Y-44326400D01*
X55026000Y-44366903D01*
X55026000Y-45803097D01*
X55022011Y-45843600D01*
X55011985Y-45876652D01*
X54995708Y-45907103D01*
X54973799Y-45933799D01*
X54947103Y-45955708D01*
X54916652Y-45971985D01*
X54883600Y-45982011D01*
X54843097Y-45986000D01*
X53106903Y-45986000D01*
X53066400Y-45982011D01*
X53033348Y-45971985D01*
X53002897Y-45955708D01*
X52976201Y-45933799D01*
X52954292Y-45907103D01*
X52938015Y-45876652D01*
X52927989Y-45843600D01*
X52924000Y-45803097D01*
X52924000Y-44366903D01*
X52927989Y-44326400D01*
X52938015Y-44293348D01*
X52954292Y-44262897D01*
X52976201Y-44236201D01*
X53002897Y-44214292D01*
X53033348Y-44198015D01*
X53066400Y-44187989D01*
X53106903Y-44184000D01*
X54843097Y-44184000D01*
X54883600Y-44187989D01*
G37*
G36*
X22485443Y-44150519D02*
G01*
X22551627Y-44157037D01*
X22721466Y-44208557D01*
X22877991Y-44292222D01*
X22889630Y-44301774D01*
X23015186Y-44404814D01*
X23098448Y-44506271D01*
X23127778Y-44542009D01*
X23211443Y-44698534D01*
X23262963Y-44868373D01*
X23280359Y-45045000D01*
X23262963Y-45221627D01*
X23211443Y-45391466D01*
X23127778Y-45547991D01*
X23098448Y-45583729D01*
X23015186Y-45685186D01*
X22913729Y-45768448D01*
X22877991Y-45797778D01*
X22721466Y-45881443D01*
X22551627Y-45932963D01*
X22485442Y-45939482D01*
X22419260Y-45946000D01*
X22030740Y-45946000D01*
X21964558Y-45939482D01*
X21898373Y-45932963D01*
X21728534Y-45881443D01*
X21572009Y-45797778D01*
X21536271Y-45768448D01*
X21434814Y-45685186D01*
X21351552Y-45583729D01*
X21322222Y-45547991D01*
X21238557Y-45391466D01*
X21187037Y-45221627D01*
X21169641Y-45045000D01*
X21187037Y-44868373D01*
X21238557Y-44698534D01*
X21322222Y-44542009D01*
X21351552Y-44506271D01*
X21434814Y-44404814D01*
X21560370Y-44301774D01*
X21572009Y-44292222D01*
X21728534Y-44208557D01*
X21898373Y-44157037D01*
X21964557Y-44150519D01*
X22030740Y-44144000D01*
X22419260Y-44144000D01*
X22485443Y-44150519D01*
G37*
G36*
X30728228Y-42361703D02*
G01*
X30883100Y-42425853D01*
X31022481Y-42518985D01*
X31141015Y-42637519D01*
X31234147Y-42776900D01*
X31298297Y-42931772D01*
X31331000Y-43096184D01*
X31331000Y-43263816D01*
X31298297Y-43428228D01*
X31234147Y-43583100D01*
X31141015Y-43722481D01*
X31022481Y-43841015D01*
X30883100Y-43934147D01*
X30728228Y-43998297D01*
X30563816Y-44031000D01*
X30396184Y-44031000D01*
X30231772Y-43998297D01*
X30076900Y-43934147D01*
X29937519Y-43841015D01*
X29818985Y-43722481D01*
X29725853Y-43583100D01*
X29661703Y-43428228D01*
X29629000Y-43263816D01*
X29629000Y-43096184D01*
X29661703Y-42931772D01*
X29725853Y-42776900D01*
X29818985Y-42637519D01*
X29937519Y-42518985D01*
X30076900Y-42425853D01*
X30231772Y-42361703D01*
X30396184Y-42329000D01*
X30563816Y-42329000D01*
X30728228Y-42361703D01*
G37*
G36*
X45968228Y-42361703D02*
G01*
X46123100Y-42425853D01*
X46262481Y-42518985D01*
X46381015Y-42637519D01*
X46474147Y-42776900D01*
X46538297Y-42931772D01*
X46571000Y-43096184D01*
X46571000Y-43263816D01*
X46538297Y-43428228D01*
X46474147Y-43583100D01*
X46381015Y-43722481D01*
X46262481Y-43841015D01*
X46123100Y-43934147D01*
X45968228Y-43998297D01*
X45803816Y-44031000D01*
X45636184Y-44031000D01*
X45471772Y-43998297D01*
X45316900Y-43934147D01*
X45177519Y-43841015D01*
X45058985Y-43722481D01*
X44965853Y-43583100D01*
X44901703Y-43428228D01*
X44869000Y-43263816D01*
X44869000Y-43096184D01*
X44901703Y-42931772D01*
X44965853Y-42776900D01*
X45058985Y-42637519D01*
X45177519Y-42518985D01*
X45316900Y-42425853D01*
X45471772Y-42361703D01*
X45636184Y-42329000D01*
X45803816Y-42329000D01*
X45968228Y-42361703D01*
G37*
G36*
X54216583Y-41688661D02*
G01*
X54301627Y-41697037D01*
X54471466Y-41748557D01*
X54627991Y-41832222D01*
X54658550Y-41857301D01*
X54765186Y-41944814D01*
X54848448Y-42046271D01*
X54877778Y-42082009D01*
X54961443Y-42238534D01*
X55012963Y-42408373D01*
X55030359Y-42585000D01*
X55012963Y-42761627D01*
X54961443Y-42931466D01*
X54961442Y-42931468D01*
X54919610Y-43009729D01*
X54877778Y-43087991D01*
X54871054Y-43096184D01*
X54765186Y-43225186D01*
X54669637Y-43303600D01*
X54627991Y-43337778D01*
X54471466Y-43421443D01*
X54301627Y-43472963D01*
X54235442Y-43479482D01*
X54169260Y-43486000D01*
X53780740Y-43486000D01*
X53714558Y-43479482D01*
X53648373Y-43472963D01*
X53478534Y-43421443D01*
X53322009Y-43337778D01*
X53280363Y-43303600D01*
X53184814Y-43225186D01*
X53078946Y-43096184D01*
X53072222Y-43087991D01*
X53030390Y-43009729D01*
X52988558Y-42931468D01*
X52988557Y-42931466D01*
X52937037Y-42761627D01*
X52919641Y-42585000D01*
X52937037Y-42408373D01*
X52988557Y-42238534D01*
X53072222Y-42082009D01*
X53101552Y-42046271D01*
X53184814Y-41944814D01*
X53291450Y-41857301D01*
X53322009Y-41832222D01*
X53478534Y-41748557D01*
X53648373Y-41697037D01*
X53733417Y-41688661D01*
X53780740Y-41684000D01*
X54169260Y-41684000D01*
X54216583Y-41688661D01*
G37*
G36*
X23133600Y-41647989D02*
G01*
X23166652Y-41658015D01*
X23197103Y-41674292D01*
X23223799Y-41696201D01*
X23245708Y-41722897D01*
X23261985Y-41753348D01*
X23272011Y-41786400D01*
X23276000Y-41826903D01*
X23276000Y-43263097D01*
X23272011Y-43303600D01*
X23261985Y-43336652D01*
X23245708Y-43367103D01*
X23223799Y-43393799D01*
X23197103Y-43415708D01*
X23166652Y-43431985D01*
X23133600Y-43442011D01*
X23093097Y-43446000D01*
X21356903Y-43446000D01*
X21316400Y-43442011D01*
X21283348Y-43431985D01*
X21252897Y-43415708D01*
X21226201Y-43393799D01*
X21204292Y-43367103D01*
X21188015Y-43336652D01*
X21177989Y-43303600D01*
X21174000Y-43263097D01*
X21174000Y-41826903D01*
X21177989Y-41786400D01*
X21188015Y-41753348D01*
X21204292Y-41722897D01*
X21226201Y-41696201D01*
X21252897Y-41674292D01*
X21283348Y-41658015D01*
X21316400Y-41647989D01*
X21356903Y-41644000D01*
X23093097Y-41644000D01*
X23133600Y-41647989D01*
G37*
G36*
X45968228Y-39821703D02*
G01*
X46123100Y-39885853D01*
X46262481Y-39978985D01*
X46381015Y-40097519D01*
X46474147Y-40236900D01*
X46538297Y-40391772D01*
X46571000Y-40556184D01*
X46571000Y-40723816D01*
X46538297Y-40888228D01*
X46474147Y-41043100D01*
X46381015Y-41182481D01*
X46262481Y-41301015D01*
X46123100Y-41394147D01*
X45968228Y-41458297D01*
X45803816Y-41491000D01*
X45636184Y-41491000D01*
X45471772Y-41458297D01*
X45316900Y-41394147D01*
X45177519Y-41301015D01*
X45058985Y-41182481D01*
X44965853Y-41043100D01*
X44901703Y-40888228D01*
X44869000Y-40723816D01*
X44869000Y-40556184D01*
X44901703Y-40391772D01*
X44965853Y-40236900D01*
X45058985Y-40097519D01*
X45177519Y-39978985D01*
X45316900Y-39885853D01*
X45471772Y-39821703D01*
X45636184Y-39789000D01*
X45803816Y-39789000D01*
X45968228Y-39821703D01*
G37*
G36*
X30728228Y-39821703D02*
G01*
X30883100Y-39885853D01*
X31022481Y-39978985D01*
X31141015Y-40097519D01*
X31234147Y-40236900D01*
X31298297Y-40391772D01*
X31331000Y-40556184D01*
X31331000Y-40723816D01*
X31298297Y-40888228D01*
X31234147Y-41043100D01*
X31141015Y-41182481D01*
X31022481Y-41301015D01*
X30883100Y-41394147D01*
X30728228Y-41458297D01*
X30563816Y-41491000D01*
X30396184Y-41491000D01*
X30231772Y-41458297D01*
X30076900Y-41394147D01*
X29937519Y-41301015D01*
X29818985Y-41182481D01*
X29725853Y-41043100D01*
X29661703Y-40888228D01*
X29629000Y-40723816D01*
X29629000Y-40556184D01*
X29661703Y-40391772D01*
X29725853Y-40236900D01*
X29818985Y-40097519D01*
X29937519Y-39978985D01*
X30076900Y-39885853D01*
X30231772Y-39821703D01*
X30396184Y-39789000D01*
X30563816Y-39789000D01*
X30728228Y-39821703D01*
G37*
G36*
X45968228Y-37281703D02*
G01*
X46123100Y-37345853D01*
X46262481Y-37438985D01*
X46381015Y-37557519D01*
X46474147Y-37696900D01*
X46538297Y-37851772D01*
X46571000Y-38016184D01*
X46571000Y-38183816D01*
X46538297Y-38348228D01*
X46474147Y-38503100D01*
X46381015Y-38642481D01*
X46262481Y-38761015D01*
X46123100Y-38854147D01*
X45968228Y-38918297D01*
X45803816Y-38951000D01*
X45636184Y-38951000D01*
X45471772Y-38918297D01*
X45316900Y-38854147D01*
X45177519Y-38761015D01*
X45058985Y-38642481D01*
X44965853Y-38503100D01*
X44901703Y-38348228D01*
X44869000Y-38183816D01*
X44869000Y-38016184D01*
X44901703Y-37851772D01*
X44965853Y-37696900D01*
X45058985Y-37557519D01*
X45177519Y-37438985D01*
X45316900Y-37345853D01*
X45471772Y-37281703D01*
X45636184Y-37249000D01*
X45803816Y-37249000D01*
X45968228Y-37281703D01*
G37*
G36*
X30728228Y-37281703D02*
G01*
X30883100Y-37345853D01*
X31022481Y-37438985D01*
X31141015Y-37557519D01*
X31234147Y-37696900D01*
X31298297Y-37851772D01*
X31331000Y-38016184D01*
X31331000Y-38183816D01*
X31298297Y-38348228D01*
X31234147Y-38503100D01*
X31141015Y-38642481D01*
X31022481Y-38761015D01*
X30883100Y-38854147D01*
X30728228Y-38918297D01*
X30563816Y-38951000D01*
X30396184Y-38951000D01*
X30231772Y-38918297D01*
X30076900Y-38854147D01*
X29937519Y-38761015D01*
X29818985Y-38642481D01*
X29725853Y-38503100D01*
X29661703Y-38348228D01*
X29629000Y-38183816D01*
X29629000Y-38016184D01*
X29661703Y-37851772D01*
X29725853Y-37696900D01*
X29818985Y-37557519D01*
X29937519Y-37438985D01*
X30076900Y-37345853D01*
X30231772Y-37281703D01*
X30396184Y-37249000D01*
X30563816Y-37249000D01*
X30728228Y-37281703D01*
G37*
G36*
X54883600Y-34662989D02*
G01*
X54916652Y-34673015D01*
X54947103Y-34689292D01*
X54973799Y-34711201D01*
X54995708Y-34737897D01*
X55011985Y-34768348D01*
X55022011Y-34801400D01*
X55026000Y-34841903D01*
X55026000Y-36278097D01*
X55022011Y-36318600D01*
X55011985Y-36351652D01*
X54995708Y-36382103D01*
X54973799Y-36408799D01*
X54947103Y-36430708D01*
X54916652Y-36446985D01*
X54883600Y-36457011D01*
X54843097Y-36461000D01*
X53106903Y-36461000D01*
X53066400Y-36457011D01*
X53033348Y-36446985D01*
X53002897Y-36430708D01*
X52976201Y-36408799D01*
X52954292Y-36382103D01*
X52938015Y-36351652D01*
X52927989Y-36318600D01*
X52924000Y-36278097D01*
X52924000Y-34841903D01*
X52927989Y-34801400D01*
X52938015Y-34768348D01*
X52954292Y-34737897D01*
X52976201Y-34711201D01*
X53002897Y-34689292D01*
X53033348Y-34673015D01*
X53066400Y-34662989D01*
X53106903Y-34659000D01*
X54843097Y-34659000D01*
X54883600Y-34662989D01*
G37*
G36*
X22485442Y-34625518D02*
G01*
X22551627Y-34632037D01*
X22721466Y-34683557D01*
X22877991Y-34767222D01*
X22889630Y-34776774D01*
X23015186Y-34879814D01*
X23098448Y-34981271D01*
X23127778Y-35017009D01*
X23127779Y-35017011D01*
X23202554Y-35156903D01*
X23211443Y-35173534D01*
X23262963Y-35343373D01*
X23280359Y-35520000D01*
X23262963Y-35696627D01*
X23211443Y-35866466D01*
X23127778Y-36022991D01*
X23098448Y-36058729D01*
X23015186Y-36160186D01*
X22913729Y-36243448D01*
X22877991Y-36272778D01*
X22721466Y-36356443D01*
X22551627Y-36407963D01*
X22485442Y-36414482D01*
X22419260Y-36421000D01*
X22030740Y-36421000D01*
X21964558Y-36414482D01*
X21898373Y-36407963D01*
X21728534Y-36356443D01*
X21572009Y-36272778D01*
X21536271Y-36243448D01*
X21434814Y-36160186D01*
X21351552Y-36058729D01*
X21322222Y-36022991D01*
X21238557Y-35866466D01*
X21187037Y-35696627D01*
X21169641Y-35520000D01*
X21187037Y-35343373D01*
X21238557Y-35173534D01*
X21247447Y-35156903D01*
X21322221Y-35017011D01*
X21322222Y-35017009D01*
X21351552Y-34981271D01*
X21434814Y-34879814D01*
X21560370Y-34776774D01*
X21572009Y-34767222D01*
X21728534Y-34683557D01*
X21898373Y-34632037D01*
X21964558Y-34625518D01*
X22030740Y-34619000D01*
X22419260Y-34619000D01*
X22485442Y-34625518D01*
G37*
G36*
X30728228Y-34741703D02*
G01*
X30883100Y-34805853D01*
X31022481Y-34898985D01*
X31141015Y-35017519D01*
X31234147Y-35156900D01*
X31298297Y-35311772D01*
X31331000Y-35476184D01*
X31331000Y-35643816D01*
X31298297Y-35808228D01*
X31234147Y-35963100D01*
X31141015Y-36102481D01*
X31022481Y-36221015D01*
X30883100Y-36314147D01*
X30728228Y-36378297D01*
X30563816Y-36411000D01*
X30396184Y-36411000D01*
X30231772Y-36378297D01*
X30076900Y-36314147D01*
X29937519Y-36221015D01*
X29818985Y-36102481D01*
X29725853Y-35963100D01*
X29661703Y-35808228D01*
X29629000Y-35643816D01*
X29629000Y-35476184D01*
X29661703Y-35311772D01*
X29725853Y-35156900D01*
X29818985Y-35017519D01*
X29937519Y-34898985D01*
X30076900Y-34805853D01*
X30231772Y-34741703D01*
X30396184Y-34709000D01*
X30563816Y-34709000D01*
X30728228Y-34741703D01*
G37*
G36*
X45968228Y-34741703D02*
G01*
X46123100Y-34805853D01*
X46262481Y-34898985D01*
X46381015Y-35017519D01*
X46474147Y-35156900D01*
X46538297Y-35311772D01*
X46571000Y-35476184D01*
X46571000Y-35643816D01*
X46538297Y-35808228D01*
X46474147Y-35963100D01*
X46381015Y-36102481D01*
X46262481Y-36221015D01*
X46123100Y-36314147D01*
X45968228Y-36378297D01*
X45803816Y-36411000D01*
X45636184Y-36411000D01*
X45471772Y-36378297D01*
X45316900Y-36314147D01*
X45177519Y-36221015D01*
X45058985Y-36102481D01*
X44965853Y-35963100D01*
X44901703Y-35808228D01*
X44869000Y-35643816D01*
X44869000Y-35476184D01*
X44901703Y-35311772D01*
X44965853Y-35156900D01*
X45058985Y-35017519D01*
X45177519Y-34898985D01*
X45316900Y-34805853D01*
X45471772Y-34741703D01*
X45636184Y-34709000D01*
X45803816Y-34709000D01*
X45968228Y-34741703D01*
G37*
G36*
X54216583Y-32163661D02*
G01*
X54301627Y-32172037D01*
X54471466Y-32223557D01*
X54627991Y-32307222D01*
X54658550Y-32332301D01*
X54765186Y-32419814D01*
X54812543Y-32477520D01*
X54877778Y-32557009D01*
X54961443Y-32713534D01*
X55012963Y-32883373D01*
X55030359Y-33060000D01*
X55012963Y-33236627D01*
X54961443Y-33406466D01*
X54961442Y-33406468D01*
X54952552Y-33423100D01*
X54877778Y-33562991D01*
X54848448Y-33598729D01*
X54765186Y-33700186D01*
X54669637Y-33778600D01*
X54627991Y-33812778D01*
X54471466Y-33896443D01*
X54301627Y-33947963D01*
X54235442Y-33954482D01*
X54169260Y-33961000D01*
X53780740Y-33961000D01*
X53714558Y-33954482D01*
X53648373Y-33947963D01*
X53478534Y-33896443D01*
X53322009Y-33812778D01*
X53280363Y-33778600D01*
X53184814Y-33700186D01*
X53101552Y-33598729D01*
X53072222Y-33562991D01*
X52997448Y-33423100D01*
X52988558Y-33406468D01*
X52988557Y-33406466D01*
X52937037Y-33236627D01*
X52919641Y-33060000D01*
X52937037Y-32883373D01*
X52988557Y-32713534D01*
X53072222Y-32557009D01*
X53137457Y-32477520D01*
X53184814Y-32419814D01*
X53291450Y-32332301D01*
X53322009Y-32307222D01*
X53478534Y-32223557D01*
X53648373Y-32172037D01*
X53733417Y-32163661D01*
X53780740Y-32159000D01*
X54169260Y-32159000D01*
X54216583Y-32163661D01*
G37*
G36*
X23133600Y-32122989D02*
G01*
X23166652Y-32133015D01*
X23197103Y-32149292D01*
X23223799Y-32171201D01*
X23245708Y-32197897D01*
X23261985Y-32228348D01*
X23272011Y-32261400D01*
X23276000Y-32301903D01*
X23276000Y-33738097D01*
X23272011Y-33778600D01*
X23261985Y-33811652D01*
X23245708Y-33842103D01*
X23223799Y-33868799D01*
X23197103Y-33890708D01*
X23166652Y-33906985D01*
X23133600Y-33917011D01*
X23093097Y-33921000D01*
X21356903Y-33921000D01*
X21316400Y-33917011D01*
X21283348Y-33906985D01*
X21252897Y-33890708D01*
X21226201Y-33868799D01*
X21204292Y-33842103D01*
X21188015Y-33811652D01*
X21177989Y-33778600D01*
X21174000Y-33738097D01*
X21174000Y-32301903D01*
X21177989Y-32261400D01*
X21188015Y-32228348D01*
X21204292Y-32197897D01*
X21226201Y-32171201D01*
X21252897Y-32149292D01*
X21283348Y-32133015D01*
X21316400Y-32122989D01*
X21356903Y-32119000D01*
X23093097Y-32119000D01*
X23133600Y-32122989D01*
G37*
G36*
X30728228Y-32201703D02*
G01*
X30883100Y-32265853D01*
X31022481Y-32358985D01*
X31141015Y-32477519D01*
X31234147Y-32616900D01*
X31298297Y-32771772D01*
X31331000Y-32936184D01*
X31331000Y-33103816D01*
X31298297Y-33268228D01*
X31234147Y-33423100D01*
X31141015Y-33562481D01*
X31022481Y-33681015D01*
X30883100Y-33774147D01*
X30728228Y-33838297D01*
X30563816Y-33871000D01*
X30396184Y-33871000D01*
X30231772Y-33838297D01*
X30076900Y-33774147D01*
X29937519Y-33681015D01*
X29818985Y-33562481D01*
X29725853Y-33423100D01*
X29661703Y-33268228D01*
X29629000Y-33103816D01*
X29629000Y-32936184D01*
X29661703Y-32771772D01*
X29725853Y-32616900D01*
X29818985Y-32477519D01*
X29937519Y-32358985D01*
X30076900Y-32265853D01*
X30231772Y-32201703D01*
X30396184Y-32169000D01*
X30563816Y-32169000D01*
X30728228Y-32201703D01*
G37*
G36*
X45968228Y-32201703D02*
G01*
X46123100Y-32265853D01*
X46262481Y-32358985D01*
X46381015Y-32477519D01*
X46474147Y-32616900D01*
X46538297Y-32771772D01*
X46571000Y-32936184D01*
X46571000Y-33103816D01*
X46538297Y-33268228D01*
X46474147Y-33423100D01*
X46381015Y-33562481D01*
X46262481Y-33681015D01*
X46123100Y-33774147D01*
X45968228Y-33838297D01*
X45803816Y-33871000D01*
X45636184Y-33871000D01*
X45471772Y-33838297D01*
X45316900Y-33774147D01*
X45177519Y-33681015D01*
X45058985Y-33562481D01*
X44965853Y-33423100D01*
X44901703Y-33268228D01*
X44869000Y-33103816D01*
X44869000Y-32936184D01*
X44901703Y-32771772D01*
X44965853Y-32616900D01*
X45058985Y-32477519D01*
X45177519Y-32358985D01*
X45316900Y-32265853D01*
X45471772Y-32201703D01*
X45636184Y-32169000D01*
X45803816Y-32169000D01*
X45968228Y-32201703D01*
G37*
G36*
X30728228Y-29661703D02*
G01*
X30883100Y-29725853D01*
X31022481Y-29818985D01*
X31141015Y-29937519D01*
X31234147Y-30076900D01*
X31298297Y-30231772D01*
X31331000Y-30396184D01*
X31331000Y-30563816D01*
X31298297Y-30728228D01*
X31234147Y-30883100D01*
X31141015Y-31022481D01*
X31022481Y-31141015D01*
X30883100Y-31234147D01*
X30728228Y-31298297D01*
X30563816Y-31331000D01*
X30396184Y-31331000D01*
X30231772Y-31298297D01*
X30076900Y-31234147D01*
X29937519Y-31141015D01*
X29818985Y-31022481D01*
X29725853Y-30883100D01*
X29661703Y-30728228D01*
X29629000Y-30563816D01*
X29629000Y-30396184D01*
X29661703Y-30231772D01*
X29725853Y-30076900D01*
X29818985Y-29937519D01*
X29937519Y-29818985D01*
X30076900Y-29725853D01*
X30231772Y-29661703D01*
X30396184Y-29629000D01*
X30563816Y-29629000D01*
X30728228Y-29661703D01*
G37*
G36*
X45968228Y-29661703D02*
G01*
X46123100Y-29725853D01*
X46262481Y-29818985D01*
X46381015Y-29937519D01*
X46474147Y-30076900D01*
X46538297Y-30231772D01*
X46571000Y-30396184D01*
X46571000Y-30563816D01*
X46538297Y-30728228D01*
X46474147Y-30883100D01*
X46381015Y-31022481D01*
X46262481Y-31141015D01*
X46123100Y-31234147D01*
X45968228Y-31298297D01*
X45803816Y-31331000D01*
X45636184Y-31331000D01*
X45471772Y-31298297D01*
X45316900Y-31234147D01*
X45177519Y-31141015D01*
X45058985Y-31022481D01*
X44965853Y-30883100D01*
X44901703Y-30728228D01*
X44869000Y-30563816D01*
X44869000Y-30396184D01*
X44901703Y-30231772D01*
X44965853Y-30076900D01*
X45058985Y-29937519D01*
X45177519Y-29818985D01*
X45316900Y-29725853D01*
X45471772Y-29661703D01*
X45636184Y-29629000D01*
X45803816Y-29629000D01*
X45968228Y-29661703D01*
G37*
G36*
X30728228Y-27121703D02*
G01*
X30883100Y-27185853D01*
X31022481Y-27278985D01*
X31141015Y-27397519D01*
X31234147Y-27536900D01*
X31298297Y-27691772D01*
X31331000Y-27856184D01*
X31331000Y-28023816D01*
X31298297Y-28188228D01*
X31234147Y-28343100D01*
X31141015Y-28482481D01*
X31022481Y-28601015D01*
X30883100Y-28694147D01*
X30728228Y-28758297D01*
X30563816Y-28791000D01*
X30396184Y-28791000D01*
X30231772Y-28758297D01*
X30076900Y-28694147D01*
X29937519Y-28601015D01*
X29818985Y-28482481D01*
X29725853Y-28343100D01*
X29661703Y-28188228D01*
X29629000Y-28023816D01*
X29629000Y-27856184D01*
X29661703Y-27691772D01*
X29725853Y-27536900D01*
X29818985Y-27397519D01*
X29937519Y-27278985D01*
X30076900Y-27185853D01*
X30231772Y-27121703D01*
X30396184Y-27089000D01*
X30563816Y-27089000D01*
X30728228Y-27121703D01*
G37*
G36*
X45968228Y-27121703D02*
G01*
X46123100Y-27185853D01*
X46262481Y-27278985D01*
X46381015Y-27397519D01*
X46474147Y-27536900D01*
X46538297Y-27691772D01*
X46571000Y-27856184D01*
X46571000Y-28023816D01*
X46538297Y-28188228D01*
X46474147Y-28343100D01*
X46381015Y-28482481D01*
X46262481Y-28601015D01*
X46123100Y-28694147D01*
X45968228Y-28758297D01*
X45803816Y-28791000D01*
X45636184Y-28791000D01*
X45471772Y-28758297D01*
X45316900Y-28694147D01*
X45177519Y-28601015D01*
X45058985Y-28482481D01*
X44965853Y-28343100D01*
X44901703Y-28188228D01*
X44869000Y-28023816D01*
X44869000Y-27856184D01*
X44901703Y-27691772D01*
X44965853Y-27536900D01*
X45058985Y-27397519D01*
X45177519Y-27278985D01*
X45316900Y-27185853D01*
X45471772Y-27121703D01*
X45636184Y-27089000D01*
X45803816Y-27089000D01*
X45968228Y-27121703D01*
G37*
G36*
X54883600Y-25137989D02*
G01*
X54916652Y-25148015D01*
X54947103Y-25164292D01*
X54973799Y-25186201D01*
X54995708Y-25212897D01*
X55011985Y-25243348D01*
X55022011Y-25276400D01*
X55026000Y-25316903D01*
X55026000Y-26753097D01*
X55022011Y-26793600D01*
X55011985Y-26826652D01*
X54995708Y-26857103D01*
X54973799Y-26883799D01*
X54947103Y-26905708D01*
X54916652Y-26921985D01*
X54883600Y-26932011D01*
X54843097Y-26936000D01*
X53106903Y-26936000D01*
X53066400Y-26932011D01*
X53033348Y-26921985D01*
X53002897Y-26905708D01*
X52976201Y-26883799D01*
X52954292Y-26857103D01*
X52938015Y-26826652D01*
X52927989Y-26793600D01*
X52924000Y-26753097D01*
X52924000Y-25316903D01*
X52927989Y-25276400D01*
X52938015Y-25243348D01*
X52954292Y-25212897D01*
X52976201Y-25186201D01*
X53002897Y-25164292D01*
X53033348Y-25148015D01*
X53066400Y-25137989D01*
X53106903Y-25134000D01*
X54843097Y-25134000D01*
X54883600Y-25137989D01*
G37*
G36*
X22485442Y-25100518D02*
G01*
X22551627Y-25107037D01*
X22721466Y-25158557D01*
X22877991Y-25242222D01*
X22889630Y-25251774D01*
X23015186Y-25354814D01*
X23098448Y-25456271D01*
X23127778Y-25492009D01*
X23127779Y-25492011D01*
X23211280Y-25648228D01*
X23211443Y-25648534D01*
X23262963Y-25818373D01*
X23280359Y-25995000D01*
X23262963Y-26171627D01*
X23211443Y-26341466D01*
X23127778Y-26497991D01*
X23098448Y-26533729D01*
X23015186Y-26635186D01*
X22913729Y-26718448D01*
X22877991Y-26747778D01*
X22721466Y-26831443D01*
X22551627Y-26882963D01*
X22485443Y-26889481D01*
X22419260Y-26896000D01*
X22030740Y-26896000D01*
X21964557Y-26889481D01*
X21898373Y-26882963D01*
X21728534Y-26831443D01*
X21572009Y-26747778D01*
X21536271Y-26718448D01*
X21434814Y-26635186D01*
X21351552Y-26533729D01*
X21322222Y-26497991D01*
X21238557Y-26341466D01*
X21187037Y-26171627D01*
X21169641Y-25995000D01*
X21187037Y-25818373D01*
X21238557Y-25648534D01*
X21238721Y-25648228D01*
X21322221Y-25492011D01*
X21322222Y-25492009D01*
X21351552Y-25456271D01*
X21434814Y-25354814D01*
X21560370Y-25251774D01*
X21572009Y-25242222D01*
X21728534Y-25158557D01*
X21898373Y-25107037D01*
X21964558Y-25100518D01*
X22030740Y-25094000D01*
X22419260Y-25094000D01*
X22485442Y-25100518D01*
G37*
G36*
X45968228Y-24581703D02*
G01*
X46123100Y-24645853D01*
X46262481Y-24738985D01*
X46381015Y-24857519D01*
X46474147Y-24996900D01*
X46538297Y-25151772D01*
X46571000Y-25316184D01*
X46571000Y-25483816D01*
X46538297Y-25648228D01*
X46474147Y-25803100D01*
X46381015Y-25942481D01*
X46262481Y-26061015D01*
X46123100Y-26154147D01*
X45968228Y-26218297D01*
X45803816Y-26251000D01*
X45636184Y-26251000D01*
X45471772Y-26218297D01*
X45316900Y-26154147D01*
X45177519Y-26061015D01*
X45058985Y-25942481D01*
X44965853Y-25803100D01*
X44901703Y-25648228D01*
X44869000Y-25483816D01*
X44869000Y-25316184D01*
X44901703Y-25151772D01*
X44965853Y-24996900D01*
X45058985Y-24857519D01*
X45177519Y-24738985D01*
X45316900Y-24645853D01*
X45471772Y-24581703D01*
X45636184Y-24549000D01*
X45803816Y-24549000D01*
X45968228Y-24581703D01*
G37*
G36*
X30728228Y-24581703D02*
G01*
X30883100Y-24645853D01*
X31022481Y-24738985D01*
X31141015Y-24857519D01*
X31234147Y-24996900D01*
X31298297Y-25151772D01*
X31331000Y-25316184D01*
X31331000Y-25483816D01*
X31298297Y-25648228D01*
X31234147Y-25803100D01*
X31141015Y-25942481D01*
X31022481Y-26061015D01*
X30883100Y-26154147D01*
X30728228Y-26218297D01*
X30563816Y-26251000D01*
X30396184Y-26251000D01*
X30231772Y-26218297D01*
X30076900Y-26154147D01*
X29937519Y-26061015D01*
X29818985Y-25942481D01*
X29725853Y-25803100D01*
X29661703Y-25648228D01*
X29629000Y-25483816D01*
X29629000Y-25316184D01*
X29661703Y-25151772D01*
X29725853Y-24996900D01*
X29818985Y-24857519D01*
X29937519Y-24738985D01*
X30076900Y-24645853D01*
X30231772Y-24581703D01*
X30396184Y-24549000D01*
X30563816Y-24549000D01*
X30728228Y-24581703D01*
G37*
G36*
X54216583Y-22638661D02*
G01*
X54301627Y-22647037D01*
X54471466Y-22698557D01*
X54627991Y-22782222D01*
X54658550Y-22807301D01*
X54765186Y-22894814D01*
X54848448Y-22996271D01*
X54877778Y-23032009D01*
X54961443Y-23188534D01*
X55012963Y-23358373D01*
X55030359Y-23535000D01*
X55012963Y-23711627D01*
X54961443Y-23881466D01*
X54877778Y-24037991D01*
X54848448Y-24073729D01*
X54765186Y-24175186D01*
X54669637Y-24253600D01*
X54627991Y-24287778D01*
X54471466Y-24371443D01*
X54301627Y-24422963D01*
X54235443Y-24429481D01*
X54169260Y-24436000D01*
X53780740Y-24436000D01*
X53714557Y-24429481D01*
X53648373Y-24422963D01*
X53478534Y-24371443D01*
X53322009Y-24287778D01*
X53280363Y-24253600D01*
X53184814Y-24175186D01*
X53101552Y-24073729D01*
X53072222Y-24037991D01*
X52988557Y-23881466D01*
X52937037Y-23711627D01*
X52919641Y-23535000D01*
X52937037Y-23358373D01*
X52988557Y-23188534D01*
X53072222Y-23032009D01*
X53101552Y-22996271D01*
X53184814Y-22894814D01*
X53291450Y-22807301D01*
X53322009Y-22782222D01*
X53478534Y-22698557D01*
X53648373Y-22647037D01*
X53733417Y-22638661D01*
X53780740Y-22634000D01*
X54169260Y-22634000D01*
X54216583Y-22638661D01*
G37*
G36*
X23133600Y-22597989D02*
G01*
X23166652Y-22608015D01*
X23197103Y-22624292D01*
X23223799Y-22646201D01*
X23245708Y-22672897D01*
X23261985Y-22703348D01*
X23272011Y-22736400D01*
X23276000Y-22776903D01*
X23276000Y-24213097D01*
X23272011Y-24253600D01*
X23261985Y-24286652D01*
X23245708Y-24317103D01*
X23223799Y-24343799D01*
X23197103Y-24365708D01*
X23166652Y-24381985D01*
X23133600Y-24392011D01*
X23093097Y-24396000D01*
X21356903Y-24396000D01*
X21316400Y-24392011D01*
X21283348Y-24381985D01*
X21252897Y-24365708D01*
X21226201Y-24343799D01*
X21204292Y-24317103D01*
X21188015Y-24286652D01*
X21177989Y-24253600D01*
X21174000Y-24213097D01*
X21174000Y-22776903D01*
X21177989Y-22736400D01*
X21188015Y-22703348D01*
X21204292Y-22672897D01*
X21226201Y-22646201D01*
X21252897Y-22624292D01*
X21283348Y-22608015D01*
X21316400Y-22597989D01*
X21356903Y-22594000D01*
X23093097Y-22594000D01*
X23133600Y-22597989D01*
G37*
G36*
X30728228Y-22041703D02*
G01*
X30883100Y-22105853D01*
X31022481Y-22198985D01*
X31141015Y-22317519D01*
X31234147Y-22456900D01*
X31298297Y-22611772D01*
X31331000Y-22776184D01*
X31331000Y-22943816D01*
X31298297Y-23108228D01*
X31234147Y-23263100D01*
X31141015Y-23402481D01*
X31022481Y-23521015D01*
X30883100Y-23614147D01*
X30728228Y-23678297D01*
X30563816Y-23711000D01*
X30396184Y-23711000D01*
X30231772Y-23678297D01*
X30076900Y-23614147D01*
X29937519Y-23521015D01*
X29818985Y-23402481D01*
X29725853Y-23263100D01*
X29661703Y-23108228D01*
X29629000Y-22943816D01*
X29629000Y-22776184D01*
X29661703Y-22611772D01*
X29725853Y-22456900D01*
X29818985Y-22317519D01*
X29937519Y-22198985D01*
X30076900Y-22105853D01*
X30231772Y-22041703D01*
X30396184Y-22009000D01*
X30563816Y-22009000D01*
X30728228Y-22041703D01*
G37*
G36*
X45968228Y-22041703D02*
G01*
X46123100Y-22105853D01*
X46262481Y-22198985D01*
X46381015Y-22317519D01*
X46474147Y-22456900D01*
X46538297Y-22611772D01*
X46571000Y-22776184D01*
X46571000Y-22943816D01*
X46538297Y-23108228D01*
X46474147Y-23263100D01*
X46381015Y-23402481D01*
X46262481Y-23521015D01*
X46123100Y-23614147D01*
X45968228Y-23678297D01*
X45803816Y-23711000D01*
X45636184Y-23711000D01*
X45471772Y-23678297D01*
X45316900Y-23614147D01*
X45177519Y-23521015D01*
X45058985Y-23402481D01*
X44965853Y-23263100D01*
X44901703Y-23108228D01*
X44869000Y-22943816D01*
X44869000Y-22776184D01*
X44901703Y-22611772D01*
X44965853Y-22456900D01*
X45058985Y-22317519D01*
X45177519Y-22198985D01*
X45316900Y-22105853D01*
X45471772Y-22041703D01*
X45636184Y-22009000D01*
X45803816Y-22009000D01*
X45968228Y-22041703D01*
G37*
G36*
X31331000Y-21171000D02*
G01*
X29629000Y-21171000D01*
X29629000Y-19469000D01*
X31331000Y-19469000D01*
X31331000Y-21171000D01*
G37*
G36*
X45968228Y-19501703D02*
G01*
X46123100Y-19565853D01*
X46262481Y-19658985D01*
X46381015Y-19777519D01*
X46474147Y-19916900D01*
X46538297Y-20071772D01*
X46571000Y-20236184D01*
X46571000Y-20403816D01*
X46538297Y-20568228D01*
X46474147Y-20723100D01*
X46381015Y-20862481D01*
X46262481Y-20981015D01*
X46123100Y-21074147D01*
X45968228Y-21138297D01*
X45803816Y-21171000D01*
X45636184Y-21171000D01*
X45471772Y-21138297D01*
X45316900Y-21074147D01*
X45177519Y-20981015D01*
X45058985Y-20862481D01*
X44965853Y-20723100D01*
X44901703Y-20568228D01*
X44869000Y-20403816D01*
X44869000Y-20236184D01*
X44901703Y-20071772D01*
X44965853Y-19916900D01*
X45058985Y-19777519D01*
X45177519Y-19658985D01*
X45316900Y-19565853D01*
X45471772Y-19501703D01*
X45636184Y-19469000D01*
X45803816Y-19469000D01*
X45968228Y-19501703D01*
G37*
G36*
X17144239Y-13321467D02*
G01*
X17458282Y-13383934D01*
X18049926Y-13629001D01*
X18582392Y-13984784D01*
X19035216Y-14437608D01*
X19390999Y-14970074D01*
X19636066Y-15561718D01*
X19636066Y-15561719D01*
X19761000Y-16189803D01*
X19761000Y-16830197D01*
X19698533Y-17144239D01*
X19636066Y-17458282D01*
X19390999Y-18049926D01*
X19035216Y-18582392D01*
X18582392Y-19035216D01*
X18049926Y-19390999D01*
X17458282Y-19636066D01*
X17343060Y-19658985D01*
X16830197Y-19761000D01*
X16189803Y-19761000D01*
X15676940Y-19658985D01*
X15561718Y-19636066D01*
X14970074Y-19390999D01*
X14437608Y-19035216D01*
X13984784Y-18582392D01*
X13629001Y-18049926D01*
X13383934Y-17458282D01*
X13321467Y-17144239D01*
X13259000Y-16830197D01*
X13259000Y-16189803D01*
X13383934Y-15561719D01*
X13383934Y-15561718D01*
X13629001Y-14970074D01*
X13984784Y-14437608D01*
X14437608Y-13984784D01*
X14970074Y-13629001D01*
X15561718Y-13383934D01*
X15875761Y-13321467D01*
X16189803Y-13259000D01*
X16830197Y-13259000D01*
X17144239Y-13321467D01*
G37*
G36*
X60324239Y-13321467D02*
G01*
X60638282Y-13383934D01*
X61229926Y-13629001D01*
X61762392Y-13984784D01*
X62215216Y-14437608D01*
X62570999Y-14970074D01*
X62816066Y-15561718D01*
X62816066Y-15561719D01*
X62941000Y-16189803D01*
X62941000Y-16830197D01*
X62878533Y-17144239D01*
X62816066Y-17458282D01*
X62570999Y-18049926D01*
X62215216Y-18582392D01*
X61762392Y-19035216D01*
X61229926Y-19390999D01*
X60638282Y-19636066D01*
X60523060Y-19658985D01*
X60010197Y-19761000D01*
X59369803Y-19761000D01*
X58856940Y-19658985D01*
X58741718Y-19636066D01*
X58150074Y-19390999D01*
X57617608Y-19035216D01*
X57164784Y-18582392D01*
X56809001Y-18049926D01*
X56563934Y-17458282D01*
X56501467Y-17144239D01*
X56439000Y-16830197D01*
X56439000Y-16189803D01*
X56563934Y-15561719D01*
X56563934Y-15561718D01*
X56809001Y-14970074D01*
X57164784Y-14437608D01*
X57617608Y-13984784D01*
X58150074Y-13629001D01*
X58741718Y-13383934D01*
X59055761Y-13321467D01*
X59369803Y-13259000D01*
X60010197Y-13259000D01*
X60324239Y-13321467D01*
G37*
M02*
