G04 #@! TF.GenerationSoftware,KiCad,Pcbnew,(5.1.5)-3*
G04 #@! TF.CreationDate,2020-03-31T15:12:15+09:00*
G04 #@! TF.ProjectId,sif,7369662e-6b69-4636-9164-5f7063625858,rev?*
G04 #@! TF.SameCoordinates,Original*
G04 #@! TF.FileFunction,Copper,L1,Top*
G04 #@! TF.FilePolarity,Positive*
%FSLAX46Y46*%
G04 Gerber Fmt 4.6, Leading zero omitted, Abs format (unit mm)*
G04 Created by KiCad (PCBNEW (5.1.5)-3) date 2020-03-31 15:12:15*
%MOMM*%
%LPD*%
G04 APERTURE LIST*
%ADD10C,1.600000*%
%ADD11R,1.600000X1.600000*%
%ADD12C,0.800000*%
%ADD13C,6.400000*%
%ADD14C,0.150000*%
%ADD15O,2.000000X1.700000*%
%ADD16O,1.700000X2.000000*%
%ADD17C,0.500000*%
G04 APERTURE END LIST*
D10*
X45720000Y-20320000D03*
X45720000Y-22860000D03*
X45720000Y-25400000D03*
X45720000Y-27940000D03*
X45720000Y-30480000D03*
X45720000Y-33020000D03*
X45720000Y-35560000D03*
X45720000Y-38100000D03*
X45720000Y-40640000D03*
X45720000Y-43180000D03*
X45720000Y-45720000D03*
X45720000Y-48260000D03*
X30480000Y-48260000D03*
X30480000Y-45720000D03*
X30480000Y-43180000D03*
X30480000Y-40640000D03*
X30480000Y-38100000D03*
X30480000Y-35560000D03*
X30480000Y-33020000D03*
X30480000Y-30480000D03*
X30480000Y-27940000D03*
X30480000Y-25400000D03*
X30480000Y-22860000D03*
D11*
X30480000Y-20320000D03*
D12*
X61387056Y-60532944D03*
X59690000Y-59830000D03*
X57992944Y-60532944D03*
X57290000Y-62230000D03*
X57992944Y-63927056D03*
X59690000Y-64630000D03*
X61387056Y-63927056D03*
X62090000Y-62230000D03*
D13*
X59690000Y-62230000D03*
D12*
X18207056Y-60532944D03*
X16510000Y-59830000D03*
X14812944Y-60532944D03*
X14110000Y-62230000D03*
X14812944Y-63927056D03*
X16510000Y-64630000D03*
X18207056Y-63927056D03*
X18910000Y-62230000D03*
D13*
X16510000Y-62230000D03*
D12*
X18207056Y-14812944D03*
X16510000Y-14110000D03*
X14812944Y-14812944D03*
X14110000Y-16510000D03*
X14812944Y-18207056D03*
X16510000Y-18910000D03*
X18207056Y-18207056D03*
X18910000Y-16510000D03*
D13*
X16510000Y-16510000D03*
D12*
X61387056Y-14812944D03*
X59690000Y-14110000D03*
X57992944Y-14812944D03*
X57290000Y-16510000D03*
X57992944Y-18207056D03*
X59690000Y-18910000D03*
X61387056Y-18207056D03*
X62090000Y-16510000D03*
D13*
X59690000Y-16510000D03*
G04 #@! TA.AperFunction,ComponentPad*
D14*
G36*
X55384504Y-46141204D02*
G01*
X55408773Y-46144804D01*
X55432571Y-46150765D01*
X55455671Y-46159030D01*
X55477849Y-46169520D01*
X55498893Y-46182133D01*
X55518598Y-46196747D01*
X55536777Y-46213223D01*
X55553253Y-46231402D01*
X55567867Y-46251107D01*
X55580480Y-46272151D01*
X55590970Y-46294329D01*
X55599235Y-46317429D01*
X55605196Y-46341227D01*
X55608796Y-46365496D01*
X55610000Y-46390000D01*
X55610000Y-47590000D01*
X55608796Y-47614504D01*
X55605196Y-47638773D01*
X55599235Y-47662571D01*
X55590970Y-47685671D01*
X55580480Y-47707849D01*
X55567867Y-47728893D01*
X55553253Y-47748598D01*
X55536777Y-47766777D01*
X55518598Y-47783253D01*
X55498893Y-47797867D01*
X55477849Y-47810480D01*
X55455671Y-47820970D01*
X55432571Y-47829235D01*
X55408773Y-47835196D01*
X55384504Y-47838796D01*
X55360000Y-47840000D01*
X53860000Y-47840000D01*
X53835496Y-47838796D01*
X53811227Y-47835196D01*
X53787429Y-47829235D01*
X53764329Y-47820970D01*
X53742151Y-47810480D01*
X53721107Y-47797867D01*
X53701402Y-47783253D01*
X53683223Y-47766777D01*
X53666747Y-47748598D01*
X53652133Y-47728893D01*
X53639520Y-47707849D01*
X53629030Y-47685671D01*
X53620765Y-47662571D01*
X53614804Y-47638773D01*
X53611204Y-47614504D01*
X53610000Y-47590000D01*
X53610000Y-46390000D01*
X53611204Y-46365496D01*
X53614804Y-46341227D01*
X53620765Y-46317429D01*
X53629030Y-46294329D01*
X53639520Y-46272151D01*
X53652133Y-46251107D01*
X53666747Y-46231402D01*
X53683223Y-46213223D01*
X53701402Y-46196747D01*
X53721107Y-46182133D01*
X53742151Y-46169520D01*
X53764329Y-46159030D01*
X53787429Y-46150765D01*
X53811227Y-46144804D01*
X53835496Y-46141204D01*
X53860000Y-46140000D01*
X55360000Y-46140000D01*
X55384504Y-46141204D01*
G37*
G04 #@! TD.AperFunction*
D15*
X54610000Y-44490000D03*
G04 #@! TA.AperFunction,ComponentPad*
D14*
G36*
X50154504Y-56151204D02*
G01*
X50178773Y-56154804D01*
X50202571Y-56160765D01*
X50225671Y-56169030D01*
X50247849Y-56179520D01*
X50268893Y-56192133D01*
X50288598Y-56206747D01*
X50306777Y-56223223D01*
X50323253Y-56241402D01*
X50337867Y-56261107D01*
X50350480Y-56282151D01*
X50360970Y-56304329D01*
X50369235Y-56327429D01*
X50375196Y-56351227D01*
X50378796Y-56375496D01*
X50380000Y-56400000D01*
X50380000Y-57900000D01*
X50378796Y-57924504D01*
X50375196Y-57948773D01*
X50369235Y-57972571D01*
X50360970Y-57995671D01*
X50350480Y-58017849D01*
X50337867Y-58038893D01*
X50323253Y-58058598D01*
X50306777Y-58076777D01*
X50288598Y-58093253D01*
X50268893Y-58107867D01*
X50247849Y-58120480D01*
X50225671Y-58130970D01*
X50202571Y-58139235D01*
X50178773Y-58145196D01*
X50154504Y-58148796D01*
X50130000Y-58150000D01*
X48930000Y-58150000D01*
X48905496Y-58148796D01*
X48881227Y-58145196D01*
X48857429Y-58139235D01*
X48834329Y-58130970D01*
X48812151Y-58120480D01*
X48791107Y-58107867D01*
X48771402Y-58093253D01*
X48753223Y-58076777D01*
X48736747Y-58058598D01*
X48722133Y-58038893D01*
X48709520Y-58017849D01*
X48699030Y-57995671D01*
X48690765Y-57972571D01*
X48684804Y-57948773D01*
X48681204Y-57924504D01*
X48680000Y-57900000D01*
X48680000Y-56400000D01*
X48681204Y-56375496D01*
X48684804Y-56351227D01*
X48690765Y-56327429D01*
X48699030Y-56304329D01*
X48709520Y-56282151D01*
X48722133Y-56261107D01*
X48736747Y-56241402D01*
X48753223Y-56223223D01*
X48771402Y-56206747D01*
X48791107Y-56192133D01*
X48812151Y-56179520D01*
X48834329Y-56169030D01*
X48857429Y-56160765D01*
X48881227Y-56154804D01*
X48905496Y-56151204D01*
X48930000Y-56150000D01*
X50130000Y-56150000D01*
X50154504Y-56151204D01*
G37*
G04 #@! TD.AperFunction*
D16*
X52030000Y-57150000D03*
D15*
X54610000Y-34330000D03*
G04 #@! TA.AperFunction,ComponentPad*
D14*
G36*
X55384504Y-35981204D02*
G01*
X55408773Y-35984804D01*
X55432571Y-35990765D01*
X55455671Y-35999030D01*
X55477849Y-36009520D01*
X55498893Y-36022133D01*
X55518598Y-36036747D01*
X55536777Y-36053223D01*
X55553253Y-36071402D01*
X55567867Y-36091107D01*
X55580480Y-36112151D01*
X55590970Y-36134329D01*
X55599235Y-36157429D01*
X55605196Y-36181227D01*
X55608796Y-36205496D01*
X55610000Y-36230000D01*
X55610000Y-37430000D01*
X55608796Y-37454504D01*
X55605196Y-37478773D01*
X55599235Y-37502571D01*
X55590970Y-37525671D01*
X55580480Y-37547849D01*
X55567867Y-37568893D01*
X55553253Y-37588598D01*
X55536777Y-37606777D01*
X55518598Y-37623253D01*
X55498893Y-37637867D01*
X55477849Y-37650480D01*
X55455671Y-37660970D01*
X55432571Y-37669235D01*
X55408773Y-37675196D01*
X55384504Y-37678796D01*
X55360000Y-37680000D01*
X53860000Y-37680000D01*
X53835496Y-37678796D01*
X53811227Y-37675196D01*
X53787429Y-37669235D01*
X53764329Y-37660970D01*
X53742151Y-37650480D01*
X53721107Y-37637867D01*
X53701402Y-37623253D01*
X53683223Y-37606777D01*
X53666747Y-37588598D01*
X53652133Y-37568893D01*
X53639520Y-37547849D01*
X53629030Y-37525671D01*
X53620765Y-37502571D01*
X53614804Y-37478773D01*
X53611204Y-37454504D01*
X53610000Y-37430000D01*
X53610000Y-36230000D01*
X53611204Y-36205496D01*
X53614804Y-36181227D01*
X53620765Y-36157429D01*
X53629030Y-36134329D01*
X53639520Y-36112151D01*
X53652133Y-36091107D01*
X53666747Y-36071402D01*
X53683223Y-36053223D01*
X53701402Y-36036747D01*
X53721107Y-36022133D01*
X53742151Y-36009520D01*
X53764329Y-35999030D01*
X53787429Y-35990765D01*
X53811227Y-35984804D01*
X53835496Y-35981204D01*
X53860000Y-35980000D01*
X55360000Y-35980000D01*
X55384504Y-35981204D01*
G37*
G04 #@! TD.AperFunction*
G04 #@! TA.AperFunction,ComponentPad*
G36*
X55384504Y-25821204D02*
G01*
X55408773Y-25824804D01*
X55432571Y-25830765D01*
X55455671Y-25839030D01*
X55477849Y-25849520D01*
X55498893Y-25862133D01*
X55518598Y-25876747D01*
X55536777Y-25893223D01*
X55553253Y-25911402D01*
X55567867Y-25931107D01*
X55580480Y-25952151D01*
X55590970Y-25974329D01*
X55599235Y-25997429D01*
X55605196Y-26021227D01*
X55608796Y-26045496D01*
X55610000Y-26070000D01*
X55610000Y-27270000D01*
X55608796Y-27294504D01*
X55605196Y-27318773D01*
X55599235Y-27342571D01*
X55590970Y-27365671D01*
X55580480Y-27387849D01*
X55567867Y-27408893D01*
X55553253Y-27428598D01*
X55536777Y-27446777D01*
X55518598Y-27463253D01*
X55498893Y-27477867D01*
X55477849Y-27490480D01*
X55455671Y-27500970D01*
X55432571Y-27509235D01*
X55408773Y-27515196D01*
X55384504Y-27518796D01*
X55360000Y-27520000D01*
X53860000Y-27520000D01*
X53835496Y-27518796D01*
X53811227Y-27515196D01*
X53787429Y-27509235D01*
X53764329Y-27500970D01*
X53742151Y-27490480D01*
X53721107Y-27477867D01*
X53701402Y-27463253D01*
X53683223Y-27446777D01*
X53666747Y-27428598D01*
X53652133Y-27408893D01*
X53639520Y-27387849D01*
X53629030Y-27365671D01*
X53620765Y-27342571D01*
X53614804Y-27318773D01*
X53611204Y-27294504D01*
X53610000Y-27270000D01*
X53610000Y-26070000D01*
X53611204Y-26045496D01*
X53614804Y-26021227D01*
X53620765Y-25997429D01*
X53629030Y-25974329D01*
X53639520Y-25952151D01*
X53652133Y-25931107D01*
X53666747Y-25911402D01*
X53683223Y-25893223D01*
X53701402Y-25876747D01*
X53721107Y-25862133D01*
X53742151Y-25849520D01*
X53764329Y-25839030D01*
X53787429Y-25830765D01*
X53811227Y-25824804D01*
X53835496Y-25821204D01*
X53860000Y-25820000D01*
X55360000Y-25820000D01*
X55384504Y-25821204D01*
G37*
G04 #@! TD.AperFunction*
D15*
X54610000Y-24170000D03*
G04 #@! TA.AperFunction,ComponentPad*
D14*
G36*
X37454504Y-56151204D02*
G01*
X37478773Y-56154804D01*
X37502571Y-56160765D01*
X37525671Y-56169030D01*
X37547849Y-56179520D01*
X37568893Y-56192133D01*
X37588598Y-56206747D01*
X37606777Y-56223223D01*
X37623253Y-56241402D01*
X37637867Y-56261107D01*
X37650480Y-56282151D01*
X37660970Y-56304329D01*
X37669235Y-56327429D01*
X37675196Y-56351227D01*
X37678796Y-56375496D01*
X37680000Y-56400000D01*
X37680000Y-57900000D01*
X37678796Y-57924504D01*
X37675196Y-57948773D01*
X37669235Y-57972571D01*
X37660970Y-57995671D01*
X37650480Y-58017849D01*
X37637867Y-58038893D01*
X37623253Y-58058598D01*
X37606777Y-58076777D01*
X37588598Y-58093253D01*
X37568893Y-58107867D01*
X37547849Y-58120480D01*
X37525671Y-58130970D01*
X37502571Y-58139235D01*
X37478773Y-58145196D01*
X37454504Y-58148796D01*
X37430000Y-58150000D01*
X36230000Y-58150000D01*
X36205496Y-58148796D01*
X36181227Y-58145196D01*
X36157429Y-58139235D01*
X36134329Y-58130970D01*
X36112151Y-58120480D01*
X36091107Y-58107867D01*
X36071402Y-58093253D01*
X36053223Y-58076777D01*
X36036747Y-58058598D01*
X36022133Y-58038893D01*
X36009520Y-58017849D01*
X35999030Y-57995671D01*
X35990765Y-57972571D01*
X35984804Y-57948773D01*
X35981204Y-57924504D01*
X35980000Y-57900000D01*
X35980000Y-56400000D01*
X35981204Y-56375496D01*
X35984804Y-56351227D01*
X35990765Y-56327429D01*
X35999030Y-56304329D01*
X36009520Y-56282151D01*
X36022133Y-56261107D01*
X36036747Y-56241402D01*
X36053223Y-56223223D01*
X36071402Y-56206747D01*
X36091107Y-56192133D01*
X36112151Y-56179520D01*
X36134329Y-56169030D01*
X36157429Y-56160765D01*
X36181227Y-56154804D01*
X36205496Y-56151204D01*
X36230000Y-56150000D01*
X37430000Y-56150000D01*
X37454504Y-56151204D01*
G37*
G04 #@! TD.AperFunction*
D16*
X39330000Y-57150000D03*
G04 #@! TA.AperFunction,ComponentPad*
D14*
G36*
X24754504Y-56151204D02*
G01*
X24778773Y-56154804D01*
X24802571Y-56160765D01*
X24825671Y-56169030D01*
X24847849Y-56179520D01*
X24868893Y-56192133D01*
X24888598Y-56206747D01*
X24906777Y-56223223D01*
X24923253Y-56241402D01*
X24937867Y-56261107D01*
X24950480Y-56282151D01*
X24960970Y-56304329D01*
X24969235Y-56327429D01*
X24975196Y-56351227D01*
X24978796Y-56375496D01*
X24980000Y-56400000D01*
X24980000Y-57900000D01*
X24978796Y-57924504D01*
X24975196Y-57948773D01*
X24969235Y-57972571D01*
X24960970Y-57995671D01*
X24950480Y-58017849D01*
X24937867Y-58038893D01*
X24923253Y-58058598D01*
X24906777Y-58076777D01*
X24888598Y-58093253D01*
X24868893Y-58107867D01*
X24847849Y-58120480D01*
X24825671Y-58130970D01*
X24802571Y-58139235D01*
X24778773Y-58145196D01*
X24754504Y-58148796D01*
X24730000Y-58150000D01*
X23530000Y-58150000D01*
X23505496Y-58148796D01*
X23481227Y-58145196D01*
X23457429Y-58139235D01*
X23434329Y-58130970D01*
X23412151Y-58120480D01*
X23391107Y-58107867D01*
X23371402Y-58093253D01*
X23353223Y-58076777D01*
X23336747Y-58058598D01*
X23322133Y-58038893D01*
X23309520Y-58017849D01*
X23299030Y-57995671D01*
X23290765Y-57972571D01*
X23284804Y-57948773D01*
X23281204Y-57924504D01*
X23280000Y-57900000D01*
X23280000Y-56400000D01*
X23281204Y-56375496D01*
X23284804Y-56351227D01*
X23290765Y-56327429D01*
X23299030Y-56304329D01*
X23309520Y-56282151D01*
X23322133Y-56261107D01*
X23336747Y-56241402D01*
X23353223Y-56223223D01*
X23371402Y-56206747D01*
X23391107Y-56192133D01*
X23412151Y-56179520D01*
X23434329Y-56169030D01*
X23457429Y-56160765D01*
X23481227Y-56154804D01*
X23505496Y-56151204D01*
X23530000Y-56150000D01*
X24730000Y-56150000D01*
X24754504Y-56151204D01*
G37*
G04 #@! TD.AperFunction*
D16*
X26630000Y-57150000D03*
G04 #@! TA.AperFunction,ComponentPad*
D14*
G36*
X22364504Y-43601204D02*
G01*
X22388773Y-43604804D01*
X22412571Y-43610765D01*
X22435671Y-43619030D01*
X22457849Y-43629520D01*
X22478893Y-43642133D01*
X22498598Y-43656747D01*
X22516777Y-43673223D01*
X22533253Y-43691402D01*
X22547867Y-43711107D01*
X22560480Y-43732151D01*
X22570970Y-43754329D01*
X22579235Y-43777429D01*
X22585196Y-43801227D01*
X22588796Y-43825496D01*
X22590000Y-43850000D01*
X22590000Y-45050000D01*
X22588796Y-45074504D01*
X22585196Y-45098773D01*
X22579235Y-45122571D01*
X22570970Y-45145671D01*
X22560480Y-45167849D01*
X22547867Y-45188893D01*
X22533253Y-45208598D01*
X22516777Y-45226777D01*
X22498598Y-45243253D01*
X22478893Y-45257867D01*
X22457849Y-45270480D01*
X22435671Y-45280970D01*
X22412571Y-45289235D01*
X22388773Y-45295196D01*
X22364504Y-45298796D01*
X22340000Y-45300000D01*
X20840000Y-45300000D01*
X20815496Y-45298796D01*
X20791227Y-45295196D01*
X20767429Y-45289235D01*
X20744329Y-45280970D01*
X20722151Y-45270480D01*
X20701107Y-45257867D01*
X20681402Y-45243253D01*
X20663223Y-45226777D01*
X20646747Y-45208598D01*
X20632133Y-45188893D01*
X20619520Y-45167849D01*
X20609030Y-45145671D01*
X20600765Y-45122571D01*
X20594804Y-45098773D01*
X20591204Y-45074504D01*
X20590000Y-45050000D01*
X20590000Y-43850000D01*
X20591204Y-43825496D01*
X20594804Y-43801227D01*
X20600765Y-43777429D01*
X20609030Y-43754329D01*
X20619520Y-43732151D01*
X20632133Y-43711107D01*
X20646747Y-43691402D01*
X20663223Y-43673223D01*
X20681402Y-43656747D01*
X20701107Y-43642133D01*
X20722151Y-43629520D01*
X20744329Y-43619030D01*
X20767429Y-43610765D01*
X20791227Y-43604804D01*
X20815496Y-43601204D01*
X20840000Y-43600000D01*
X22340000Y-43600000D01*
X22364504Y-43601204D01*
G37*
G04 #@! TD.AperFunction*
D15*
X21590000Y-46950000D03*
X21590000Y-36790000D03*
G04 #@! TA.AperFunction,ComponentPad*
D14*
G36*
X22364504Y-33441204D02*
G01*
X22388773Y-33444804D01*
X22412571Y-33450765D01*
X22435671Y-33459030D01*
X22457849Y-33469520D01*
X22478893Y-33482133D01*
X22498598Y-33496747D01*
X22516777Y-33513223D01*
X22533253Y-33531402D01*
X22547867Y-33551107D01*
X22560480Y-33572151D01*
X22570970Y-33594329D01*
X22579235Y-33617429D01*
X22585196Y-33641227D01*
X22588796Y-33665496D01*
X22590000Y-33690000D01*
X22590000Y-34890000D01*
X22588796Y-34914504D01*
X22585196Y-34938773D01*
X22579235Y-34962571D01*
X22570970Y-34985671D01*
X22560480Y-35007849D01*
X22547867Y-35028893D01*
X22533253Y-35048598D01*
X22516777Y-35066777D01*
X22498598Y-35083253D01*
X22478893Y-35097867D01*
X22457849Y-35110480D01*
X22435671Y-35120970D01*
X22412571Y-35129235D01*
X22388773Y-35135196D01*
X22364504Y-35138796D01*
X22340000Y-35140000D01*
X20840000Y-35140000D01*
X20815496Y-35138796D01*
X20791227Y-35135196D01*
X20767429Y-35129235D01*
X20744329Y-35120970D01*
X20722151Y-35110480D01*
X20701107Y-35097867D01*
X20681402Y-35083253D01*
X20663223Y-35066777D01*
X20646747Y-35048598D01*
X20632133Y-35028893D01*
X20619520Y-35007849D01*
X20609030Y-34985671D01*
X20600765Y-34962571D01*
X20594804Y-34938773D01*
X20591204Y-34914504D01*
X20590000Y-34890000D01*
X20590000Y-33690000D01*
X20591204Y-33665496D01*
X20594804Y-33641227D01*
X20600765Y-33617429D01*
X20609030Y-33594329D01*
X20619520Y-33572151D01*
X20632133Y-33551107D01*
X20646747Y-33531402D01*
X20663223Y-33513223D01*
X20681402Y-33496747D01*
X20701107Y-33482133D01*
X20722151Y-33469520D01*
X20744329Y-33459030D01*
X20767429Y-33450765D01*
X20791227Y-33444804D01*
X20815496Y-33441204D01*
X20840000Y-33440000D01*
X22340000Y-33440000D01*
X22364504Y-33441204D01*
G37*
G04 #@! TD.AperFunction*
D15*
X21590000Y-26630000D03*
G04 #@! TA.AperFunction,ComponentPad*
D14*
G36*
X22364504Y-23281204D02*
G01*
X22388773Y-23284804D01*
X22412571Y-23290765D01*
X22435671Y-23299030D01*
X22457849Y-23309520D01*
X22478893Y-23322133D01*
X22498598Y-23336747D01*
X22516777Y-23353223D01*
X22533253Y-23371402D01*
X22547867Y-23391107D01*
X22560480Y-23412151D01*
X22570970Y-23434329D01*
X22579235Y-23457429D01*
X22585196Y-23481227D01*
X22588796Y-23505496D01*
X22590000Y-23530000D01*
X22590000Y-24730000D01*
X22588796Y-24754504D01*
X22585196Y-24778773D01*
X22579235Y-24802571D01*
X22570970Y-24825671D01*
X22560480Y-24847849D01*
X22547867Y-24868893D01*
X22533253Y-24888598D01*
X22516777Y-24906777D01*
X22498598Y-24923253D01*
X22478893Y-24937867D01*
X22457849Y-24950480D01*
X22435671Y-24960970D01*
X22412571Y-24969235D01*
X22388773Y-24975196D01*
X22364504Y-24978796D01*
X22340000Y-24980000D01*
X20840000Y-24980000D01*
X20815496Y-24978796D01*
X20791227Y-24975196D01*
X20767429Y-24969235D01*
X20744329Y-24960970D01*
X20722151Y-24950480D01*
X20701107Y-24937867D01*
X20681402Y-24923253D01*
X20663223Y-24906777D01*
X20646747Y-24888598D01*
X20632133Y-24868893D01*
X20619520Y-24847849D01*
X20609030Y-24825671D01*
X20600765Y-24802571D01*
X20594804Y-24778773D01*
X20591204Y-24754504D01*
X20590000Y-24730000D01*
X20590000Y-23530000D01*
X20591204Y-23505496D01*
X20594804Y-23481227D01*
X20600765Y-23457429D01*
X20609030Y-23434329D01*
X20619520Y-23412151D01*
X20632133Y-23391107D01*
X20646747Y-23371402D01*
X20663223Y-23353223D01*
X20681402Y-23336747D01*
X20701107Y-23322133D01*
X20722151Y-23309520D01*
X20744329Y-23299030D01*
X20767429Y-23290765D01*
X20791227Y-23284804D01*
X20815496Y-23281204D01*
X20840000Y-23280000D01*
X22340000Y-23280000D01*
X22364504Y-23281204D01*
G37*
G04 #@! TD.AperFunction*
D12*
X40640000Y-43180000D03*
X40640000Y-48260000D03*
X35560000Y-43180000D03*
X35560000Y-48260000D03*
X38100000Y-44450000D03*
X38100000Y-46990000D03*
D17*
X40640000Y-43180000D02*
X40640000Y-48260000D01*
X35560000Y-43180000D02*
X35560000Y-48260000D01*
X38100000Y-44450000D02*
X38100000Y-46990000D01*
M02*
