G04 #@! TF.GenerationSoftware,KiCad,Pcbnew,(5.1.5)-3*
G04 #@! TF.CreationDate,2020-03-31T15:24:39+09:00*
G04 #@! TF.ProjectId,sif,7369662e-6b69-4636-9164-5f7063625858,rev?*
G04 #@! TF.SameCoordinates,Original*
G04 #@! TF.FileFunction,Soldermask,Top*
G04 #@! TF.FilePolarity,Negative*
%FSLAX46Y46*%
G04 Gerber Fmt 4.6, Leading zero omitted, Abs format (unit mm)*
G04 Created by KiCad (PCBNEW (5.1.5)-3) date 2020-03-31 15:24:39*
%MOMM*%
%LPD*%
G04 APERTURE LIST*
%ADD10C,0.150000*%
G04 APERTURE END LIST*
D10*
G36*
X60324239Y-59041467D02*
G01*
X60638282Y-59103934D01*
X61229926Y-59349001D01*
X61762392Y-59704784D01*
X62215216Y-60157608D01*
X62570999Y-60690074D01*
X62816066Y-61281718D01*
X62816066Y-61281719D01*
X62941000Y-61909803D01*
X62941000Y-62550197D01*
X62878533Y-62864239D01*
X62816066Y-63178282D01*
X62570999Y-63769926D01*
X62215216Y-64302392D01*
X61762392Y-64755216D01*
X61229926Y-65110999D01*
X60638282Y-65356066D01*
X60324239Y-65418533D01*
X60010197Y-65481000D01*
X59369803Y-65481000D01*
X59055761Y-65418533D01*
X58741718Y-65356066D01*
X58150074Y-65110999D01*
X57617608Y-64755216D01*
X57164784Y-64302392D01*
X56809001Y-63769926D01*
X56563934Y-63178282D01*
X56501467Y-62864239D01*
X56439000Y-62550197D01*
X56439000Y-61909803D01*
X56563934Y-61281719D01*
X56563934Y-61281718D01*
X56809001Y-60690074D01*
X57164784Y-60157608D01*
X57617608Y-59704784D01*
X58150074Y-59349001D01*
X58741718Y-59103934D01*
X59055761Y-59041467D01*
X59369803Y-58979000D01*
X60010197Y-58979000D01*
X60324239Y-59041467D01*
G37*
G36*
X17144239Y-59041467D02*
G01*
X17458282Y-59103934D01*
X18049926Y-59349001D01*
X18582392Y-59704784D01*
X19035216Y-60157608D01*
X19390999Y-60690074D01*
X19636066Y-61281718D01*
X19636066Y-61281719D01*
X19761000Y-61909803D01*
X19761000Y-62550197D01*
X19698533Y-62864239D01*
X19636066Y-63178282D01*
X19390999Y-63769926D01*
X19035216Y-64302392D01*
X18582392Y-64755216D01*
X18049926Y-65110999D01*
X17458282Y-65356066D01*
X17144239Y-65418533D01*
X16830197Y-65481000D01*
X16189803Y-65481000D01*
X15875761Y-65418533D01*
X15561718Y-65356066D01*
X14970074Y-65110999D01*
X14437608Y-64755216D01*
X13984784Y-64302392D01*
X13629001Y-63769926D01*
X13383934Y-63178282D01*
X13321467Y-62864239D01*
X13259000Y-62550197D01*
X13259000Y-61909803D01*
X13383934Y-61281719D01*
X13383934Y-61281718D01*
X13629001Y-60690074D01*
X13984784Y-60157608D01*
X14437608Y-59704784D01*
X14970074Y-59349001D01*
X15561718Y-59103934D01*
X15875761Y-59041467D01*
X16189803Y-58979000D01*
X16830197Y-58979000D01*
X17144239Y-59041467D01*
G37*
G36*
X52206626Y-56112037D02*
G01*
X52376465Y-56163557D01*
X52376467Y-56163558D01*
X52532989Y-56247221D01*
X52670186Y-56359814D01*
X52753448Y-56461271D01*
X52782778Y-56497009D01*
X52866443Y-56653534D01*
X52917963Y-56823373D01*
X52931000Y-56955742D01*
X52931000Y-57344257D01*
X52917963Y-57476626D01*
X52866443Y-57646466D01*
X52782778Y-57802991D01*
X52753448Y-57838729D01*
X52670186Y-57940186D01*
X52575250Y-58018097D01*
X52532991Y-58052778D01*
X52376466Y-58136443D01*
X52206627Y-58187963D01*
X52030000Y-58205359D01*
X51853374Y-58187963D01*
X51683535Y-58136443D01*
X51527010Y-58052778D01*
X51389815Y-57940185D01*
X51277222Y-57802991D01*
X51193557Y-57646466D01*
X51142037Y-57476627D01*
X51129000Y-57344258D01*
X51129000Y-56955743D01*
X51142037Y-56823374D01*
X51193557Y-56653535D01*
X51277222Y-56497010D01*
X51277223Y-56497009D01*
X51389814Y-56359814D01*
X51491271Y-56276552D01*
X51527009Y-56247222D01*
X51683534Y-56163557D01*
X51853373Y-56112037D01*
X52030000Y-56094641D01*
X52206626Y-56112037D01*
G37*
G36*
X26806626Y-56112037D02*
G01*
X26976465Y-56163557D01*
X26976467Y-56163558D01*
X27132989Y-56247221D01*
X27270186Y-56359814D01*
X27353448Y-56461271D01*
X27382778Y-56497009D01*
X27466443Y-56653534D01*
X27517963Y-56823373D01*
X27531000Y-56955742D01*
X27531000Y-57344257D01*
X27517963Y-57476626D01*
X27466443Y-57646466D01*
X27382778Y-57802991D01*
X27353448Y-57838729D01*
X27270186Y-57940186D01*
X27175250Y-58018097D01*
X27132991Y-58052778D01*
X26976466Y-58136443D01*
X26806627Y-58187963D01*
X26630000Y-58205359D01*
X26453374Y-58187963D01*
X26283535Y-58136443D01*
X26127010Y-58052778D01*
X25989815Y-57940185D01*
X25877222Y-57802991D01*
X25793557Y-57646466D01*
X25742037Y-57476627D01*
X25729000Y-57344258D01*
X25729000Y-56955743D01*
X25742037Y-56823374D01*
X25793557Y-56653535D01*
X25877222Y-56497010D01*
X25877223Y-56497009D01*
X25989814Y-56359814D01*
X26091271Y-56276552D01*
X26127009Y-56247222D01*
X26283534Y-56163557D01*
X26453373Y-56112037D01*
X26630000Y-56094641D01*
X26806626Y-56112037D01*
G37*
G36*
X39506626Y-56112037D02*
G01*
X39676465Y-56163557D01*
X39676467Y-56163558D01*
X39832989Y-56247221D01*
X39970186Y-56359814D01*
X40053448Y-56461271D01*
X40082778Y-56497009D01*
X40166443Y-56653534D01*
X40217963Y-56823373D01*
X40231000Y-56955742D01*
X40231000Y-57344257D01*
X40217963Y-57476626D01*
X40166443Y-57646466D01*
X40082778Y-57802991D01*
X40053448Y-57838729D01*
X39970186Y-57940186D01*
X39875250Y-58018097D01*
X39832991Y-58052778D01*
X39676466Y-58136443D01*
X39506627Y-58187963D01*
X39330000Y-58205359D01*
X39153374Y-58187963D01*
X38983535Y-58136443D01*
X38827010Y-58052778D01*
X38689815Y-57940185D01*
X38577222Y-57802991D01*
X38493557Y-57646466D01*
X38442037Y-57476627D01*
X38429000Y-57344258D01*
X38429000Y-56955743D01*
X38442037Y-56823374D01*
X38493557Y-56653535D01*
X38577222Y-56497010D01*
X38577223Y-56497009D01*
X38689814Y-56359814D01*
X38791271Y-56276552D01*
X38827009Y-56247222D01*
X38983534Y-56163557D01*
X39153373Y-56112037D01*
X39330000Y-56094641D01*
X39506626Y-56112037D01*
G37*
G36*
X37588600Y-56102989D02*
G01*
X37621652Y-56113015D01*
X37652103Y-56129292D01*
X37678799Y-56151201D01*
X37700708Y-56177897D01*
X37716985Y-56208348D01*
X37727011Y-56241400D01*
X37731000Y-56281903D01*
X37731000Y-58018097D01*
X37727011Y-58058600D01*
X37716985Y-58091652D01*
X37700708Y-58122103D01*
X37678799Y-58148799D01*
X37652103Y-58170708D01*
X37621652Y-58186985D01*
X37588600Y-58197011D01*
X37548097Y-58201000D01*
X36111903Y-58201000D01*
X36071400Y-58197011D01*
X36038348Y-58186985D01*
X36007897Y-58170708D01*
X35981201Y-58148799D01*
X35959292Y-58122103D01*
X35943015Y-58091652D01*
X35932989Y-58058600D01*
X35929000Y-58018097D01*
X35929000Y-56281903D01*
X35932989Y-56241400D01*
X35943015Y-56208348D01*
X35959292Y-56177897D01*
X35981201Y-56151201D01*
X36007897Y-56129292D01*
X36038348Y-56113015D01*
X36071400Y-56102989D01*
X36111903Y-56099000D01*
X37548097Y-56099000D01*
X37588600Y-56102989D01*
G37*
G36*
X24888600Y-56102989D02*
G01*
X24921652Y-56113015D01*
X24952103Y-56129292D01*
X24978799Y-56151201D01*
X25000708Y-56177897D01*
X25016985Y-56208348D01*
X25027011Y-56241400D01*
X25031000Y-56281903D01*
X25031000Y-58018097D01*
X25027011Y-58058600D01*
X25016985Y-58091652D01*
X25000708Y-58122103D01*
X24978799Y-58148799D01*
X24952103Y-58170708D01*
X24921652Y-58186985D01*
X24888600Y-58197011D01*
X24848097Y-58201000D01*
X23411903Y-58201000D01*
X23371400Y-58197011D01*
X23338348Y-58186985D01*
X23307897Y-58170708D01*
X23281201Y-58148799D01*
X23259292Y-58122103D01*
X23243015Y-58091652D01*
X23232989Y-58058600D01*
X23229000Y-58018097D01*
X23229000Y-56281903D01*
X23232989Y-56241400D01*
X23243015Y-56208348D01*
X23259292Y-56177897D01*
X23281201Y-56151201D01*
X23307897Y-56129292D01*
X23338348Y-56113015D01*
X23371400Y-56102989D01*
X23411903Y-56099000D01*
X24848097Y-56099000D01*
X24888600Y-56102989D01*
G37*
G36*
X50288600Y-56102989D02*
G01*
X50321652Y-56113015D01*
X50352103Y-56129292D01*
X50378799Y-56151201D01*
X50400708Y-56177897D01*
X50416985Y-56208348D01*
X50427011Y-56241400D01*
X50431000Y-56281903D01*
X50431000Y-58018097D01*
X50427011Y-58058600D01*
X50416985Y-58091652D01*
X50400708Y-58122103D01*
X50378799Y-58148799D01*
X50352103Y-58170708D01*
X50321652Y-58186985D01*
X50288600Y-58197011D01*
X50248097Y-58201000D01*
X48811903Y-58201000D01*
X48771400Y-58197011D01*
X48738348Y-58186985D01*
X48707897Y-58170708D01*
X48681201Y-58148799D01*
X48659292Y-58122103D01*
X48643015Y-58091652D01*
X48632989Y-58058600D01*
X48629000Y-58018097D01*
X48629000Y-56281903D01*
X48632989Y-56241400D01*
X48643015Y-56208348D01*
X48659292Y-56177897D01*
X48681201Y-56151201D01*
X48707897Y-56129292D01*
X48738348Y-56113015D01*
X48771400Y-56102989D01*
X48811903Y-56099000D01*
X50248097Y-56099000D01*
X50288600Y-56102989D01*
G37*
G36*
X45968228Y-47441703D02*
G01*
X46123100Y-47505853D01*
X46262481Y-47598985D01*
X46381015Y-47717519D01*
X46474147Y-47856900D01*
X46538297Y-48011772D01*
X46571000Y-48176184D01*
X46571000Y-48343816D01*
X46538297Y-48508228D01*
X46474147Y-48663100D01*
X46381015Y-48802481D01*
X46262481Y-48921015D01*
X46123100Y-49014147D01*
X45968228Y-49078297D01*
X45803816Y-49111000D01*
X45636184Y-49111000D01*
X45471772Y-49078297D01*
X45316900Y-49014147D01*
X45177519Y-48921015D01*
X45058985Y-48802481D01*
X44965853Y-48663100D01*
X44901703Y-48508228D01*
X44869000Y-48343816D01*
X44869000Y-48176184D01*
X44901703Y-48011772D01*
X44965853Y-47856900D01*
X45058985Y-47717519D01*
X45177519Y-47598985D01*
X45316900Y-47505853D01*
X45471772Y-47441703D01*
X45636184Y-47409000D01*
X45803816Y-47409000D01*
X45968228Y-47441703D01*
G37*
G36*
X30728228Y-47441703D02*
G01*
X30883100Y-47505853D01*
X31022481Y-47598985D01*
X31141015Y-47717519D01*
X31234147Y-47856900D01*
X31298297Y-48011772D01*
X31331000Y-48176184D01*
X31331000Y-48343816D01*
X31298297Y-48508228D01*
X31234147Y-48663100D01*
X31141015Y-48802481D01*
X31022481Y-48921015D01*
X30883100Y-49014147D01*
X30728228Y-49078297D01*
X30563816Y-49111000D01*
X30396184Y-49111000D01*
X30231772Y-49078297D01*
X30076900Y-49014147D01*
X29937519Y-48921015D01*
X29818985Y-48802481D01*
X29725853Y-48663100D01*
X29661703Y-48508228D01*
X29629000Y-48343816D01*
X29629000Y-48176184D01*
X29661703Y-48011772D01*
X29725853Y-47856900D01*
X29818985Y-47717519D01*
X29937519Y-47598985D01*
X30076900Y-47505853D01*
X30231772Y-47441703D01*
X30396184Y-47409000D01*
X30563816Y-47409000D01*
X30728228Y-47441703D01*
G37*
G36*
X55518600Y-46092989D02*
G01*
X55551652Y-46103015D01*
X55582103Y-46119292D01*
X55608799Y-46141201D01*
X55630708Y-46167897D01*
X55646985Y-46198348D01*
X55657011Y-46231400D01*
X55661000Y-46271903D01*
X55661000Y-47708097D01*
X55657011Y-47748600D01*
X55646985Y-47781652D01*
X55630708Y-47812103D01*
X55608799Y-47838799D01*
X55582103Y-47860708D01*
X55551652Y-47876985D01*
X55518600Y-47887011D01*
X55478097Y-47891000D01*
X53741903Y-47891000D01*
X53701400Y-47887011D01*
X53668348Y-47876985D01*
X53637897Y-47860708D01*
X53611201Y-47838799D01*
X53589292Y-47812103D01*
X53573015Y-47781652D01*
X53562989Y-47748600D01*
X53559000Y-47708097D01*
X53559000Y-46271903D01*
X53562989Y-46231400D01*
X53573015Y-46198348D01*
X53589292Y-46167897D01*
X53611201Y-46141201D01*
X53637897Y-46119292D01*
X53668348Y-46103015D01*
X53701400Y-46092989D01*
X53741903Y-46089000D01*
X55478097Y-46089000D01*
X55518600Y-46092989D01*
G37*
G36*
X21850443Y-46055519D02*
G01*
X21916627Y-46062037D01*
X22086466Y-46113557D01*
X22242991Y-46197222D01*
X22254630Y-46206774D01*
X22380186Y-46309814D01*
X22438618Y-46381015D01*
X22492778Y-46447009D01*
X22576443Y-46603534D01*
X22627963Y-46773373D01*
X22645359Y-46950000D01*
X22627963Y-47126627D01*
X22576443Y-47296466D01*
X22492778Y-47452991D01*
X22463448Y-47488729D01*
X22380186Y-47590186D01*
X22278729Y-47673448D01*
X22242991Y-47702778D01*
X22086466Y-47786443D01*
X21916627Y-47837963D01*
X21850442Y-47844482D01*
X21784260Y-47851000D01*
X21395740Y-47851000D01*
X21329558Y-47844482D01*
X21263373Y-47837963D01*
X21093534Y-47786443D01*
X20937009Y-47702778D01*
X20901271Y-47673448D01*
X20799814Y-47590186D01*
X20716552Y-47488729D01*
X20687222Y-47452991D01*
X20603557Y-47296466D01*
X20552037Y-47126627D01*
X20534641Y-46950000D01*
X20552037Y-46773373D01*
X20603557Y-46603534D01*
X20687222Y-46447009D01*
X20741382Y-46381015D01*
X20799814Y-46309814D01*
X20925370Y-46206774D01*
X20937009Y-46197222D01*
X21093534Y-46113557D01*
X21263373Y-46062037D01*
X21329557Y-46055519D01*
X21395740Y-46049000D01*
X21784260Y-46049000D01*
X21850443Y-46055519D01*
G37*
G36*
X45968228Y-44901703D02*
G01*
X46123100Y-44965853D01*
X46262481Y-45058985D01*
X46381015Y-45177519D01*
X46474147Y-45316900D01*
X46538297Y-45471772D01*
X46571000Y-45636184D01*
X46571000Y-45803816D01*
X46538297Y-45968228D01*
X46474147Y-46123100D01*
X46381015Y-46262481D01*
X46262481Y-46381015D01*
X46123100Y-46474147D01*
X45968228Y-46538297D01*
X45803816Y-46571000D01*
X45636184Y-46571000D01*
X45471772Y-46538297D01*
X45316900Y-46474147D01*
X45177519Y-46381015D01*
X45058985Y-46262481D01*
X44965853Y-46123100D01*
X44901703Y-45968228D01*
X44869000Y-45803816D01*
X44869000Y-45636184D01*
X44901703Y-45471772D01*
X44965853Y-45316900D01*
X45058985Y-45177519D01*
X45177519Y-45058985D01*
X45316900Y-44965853D01*
X45471772Y-44901703D01*
X45636184Y-44869000D01*
X45803816Y-44869000D01*
X45968228Y-44901703D01*
G37*
G36*
X30728228Y-44901703D02*
G01*
X30883100Y-44965853D01*
X31022481Y-45058985D01*
X31141015Y-45177519D01*
X31234147Y-45316900D01*
X31298297Y-45471772D01*
X31331000Y-45636184D01*
X31331000Y-45803816D01*
X31298297Y-45968228D01*
X31234147Y-46123100D01*
X31141015Y-46262481D01*
X31022481Y-46381015D01*
X30883100Y-46474147D01*
X30728228Y-46538297D01*
X30563816Y-46571000D01*
X30396184Y-46571000D01*
X30231772Y-46538297D01*
X30076900Y-46474147D01*
X29937519Y-46381015D01*
X29818985Y-46262481D01*
X29725853Y-46123100D01*
X29661703Y-45968228D01*
X29629000Y-45803816D01*
X29629000Y-45636184D01*
X29661703Y-45471772D01*
X29725853Y-45316900D01*
X29818985Y-45177519D01*
X29937519Y-45058985D01*
X30076900Y-44965853D01*
X30231772Y-44901703D01*
X30396184Y-44869000D01*
X30563816Y-44869000D01*
X30728228Y-44901703D01*
G37*
G36*
X54851583Y-43593661D02*
G01*
X54936627Y-43602037D01*
X55106466Y-43653557D01*
X55262991Y-43737222D01*
X55293550Y-43762301D01*
X55400186Y-43849814D01*
X55469395Y-43934147D01*
X55512778Y-43987009D01*
X55596443Y-44143534D01*
X55647963Y-44313373D01*
X55665359Y-44490000D01*
X55647963Y-44666627D01*
X55596443Y-44836466D01*
X55512778Y-44992991D01*
X55483448Y-45028729D01*
X55400186Y-45130186D01*
X55304637Y-45208600D01*
X55262991Y-45242778D01*
X55106466Y-45326443D01*
X54936627Y-45377963D01*
X54870443Y-45384481D01*
X54804260Y-45391000D01*
X54415740Y-45391000D01*
X54349557Y-45384481D01*
X54283373Y-45377963D01*
X54113534Y-45326443D01*
X53957009Y-45242778D01*
X53915363Y-45208600D01*
X53819814Y-45130186D01*
X53736552Y-45028729D01*
X53707222Y-44992991D01*
X53623557Y-44836466D01*
X53572037Y-44666627D01*
X53554641Y-44490000D01*
X53572037Y-44313373D01*
X53623557Y-44143534D01*
X53707222Y-43987009D01*
X53750605Y-43934147D01*
X53819814Y-43849814D01*
X53926450Y-43762301D01*
X53957009Y-43737222D01*
X54113534Y-43653557D01*
X54283373Y-43602037D01*
X54368417Y-43593661D01*
X54415740Y-43589000D01*
X54804260Y-43589000D01*
X54851583Y-43593661D01*
G37*
G36*
X22498600Y-43552989D02*
G01*
X22531652Y-43563015D01*
X22562103Y-43579292D01*
X22588799Y-43601201D01*
X22610708Y-43627897D01*
X22626985Y-43658348D01*
X22637011Y-43691400D01*
X22641000Y-43731903D01*
X22641000Y-45168097D01*
X22637011Y-45208600D01*
X22626985Y-45241652D01*
X22610708Y-45272103D01*
X22588799Y-45298799D01*
X22562103Y-45320708D01*
X22531652Y-45336985D01*
X22498600Y-45347011D01*
X22458097Y-45351000D01*
X20721903Y-45351000D01*
X20681400Y-45347011D01*
X20648348Y-45336985D01*
X20617897Y-45320708D01*
X20591201Y-45298799D01*
X20569292Y-45272103D01*
X20553015Y-45241652D01*
X20542989Y-45208600D01*
X20539000Y-45168097D01*
X20539000Y-43731903D01*
X20542989Y-43691400D01*
X20553015Y-43658348D01*
X20569292Y-43627897D01*
X20591201Y-43601201D01*
X20617897Y-43579292D01*
X20648348Y-43563015D01*
X20681400Y-43552989D01*
X20721903Y-43549000D01*
X22458097Y-43549000D01*
X22498600Y-43552989D01*
G37*
G36*
X30728228Y-42361703D02*
G01*
X30883100Y-42425853D01*
X31022481Y-42518985D01*
X31141015Y-42637519D01*
X31234147Y-42776900D01*
X31298297Y-42931772D01*
X31331000Y-43096184D01*
X31331000Y-43263816D01*
X31298297Y-43428228D01*
X31234147Y-43583100D01*
X31141015Y-43722481D01*
X31022481Y-43841015D01*
X30883100Y-43934147D01*
X30728228Y-43998297D01*
X30563816Y-44031000D01*
X30396184Y-44031000D01*
X30231772Y-43998297D01*
X30076900Y-43934147D01*
X29937519Y-43841015D01*
X29818985Y-43722481D01*
X29725853Y-43583100D01*
X29661703Y-43428228D01*
X29629000Y-43263816D01*
X29629000Y-43096184D01*
X29661703Y-42931772D01*
X29725853Y-42776900D01*
X29818985Y-42637519D01*
X29937519Y-42518985D01*
X30076900Y-42425853D01*
X30231772Y-42361703D01*
X30396184Y-42329000D01*
X30563816Y-42329000D01*
X30728228Y-42361703D01*
G37*
G36*
X45968228Y-42361703D02*
G01*
X46123100Y-42425853D01*
X46262481Y-42518985D01*
X46381015Y-42637519D01*
X46474147Y-42776900D01*
X46538297Y-42931772D01*
X46571000Y-43096184D01*
X46571000Y-43263816D01*
X46538297Y-43428228D01*
X46474147Y-43583100D01*
X46381015Y-43722481D01*
X46262481Y-43841015D01*
X46123100Y-43934147D01*
X45968228Y-43998297D01*
X45803816Y-44031000D01*
X45636184Y-44031000D01*
X45471772Y-43998297D01*
X45316900Y-43934147D01*
X45177519Y-43841015D01*
X45058985Y-43722481D01*
X44965853Y-43583100D01*
X44901703Y-43428228D01*
X44869000Y-43263816D01*
X44869000Y-43096184D01*
X44901703Y-42931772D01*
X44965853Y-42776900D01*
X45058985Y-42637519D01*
X45177519Y-42518985D01*
X45316900Y-42425853D01*
X45471772Y-42361703D01*
X45636184Y-42329000D01*
X45803816Y-42329000D01*
X45968228Y-42361703D01*
G37*
G36*
X30728228Y-39821703D02*
G01*
X30883100Y-39885853D01*
X31022481Y-39978985D01*
X31141015Y-40097519D01*
X31234147Y-40236900D01*
X31298297Y-40391772D01*
X31331000Y-40556184D01*
X31331000Y-40723816D01*
X31298297Y-40888228D01*
X31234147Y-41043100D01*
X31141015Y-41182481D01*
X31022481Y-41301015D01*
X30883100Y-41394147D01*
X30728228Y-41458297D01*
X30563816Y-41491000D01*
X30396184Y-41491000D01*
X30231772Y-41458297D01*
X30076900Y-41394147D01*
X29937519Y-41301015D01*
X29818985Y-41182481D01*
X29725853Y-41043100D01*
X29661703Y-40888228D01*
X29629000Y-40723816D01*
X29629000Y-40556184D01*
X29661703Y-40391772D01*
X29725853Y-40236900D01*
X29818985Y-40097519D01*
X29937519Y-39978985D01*
X30076900Y-39885853D01*
X30231772Y-39821703D01*
X30396184Y-39789000D01*
X30563816Y-39789000D01*
X30728228Y-39821703D01*
G37*
G36*
X45968228Y-39821703D02*
G01*
X46123100Y-39885853D01*
X46262481Y-39978985D01*
X46381015Y-40097519D01*
X46474147Y-40236900D01*
X46538297Y-40391772D01*
X46571000Y-40556184D01*
X46571000Y-40723816D01*
X46538297Y-40888228D01*
X46474147Y-41043100D01*
X46381015Y-41182481D01*
X46262481Y-41301015D01*
X46123100Y-41394147D01*
X45968228Y-41458297D01*
X45803816Y-41491000D01*
X45636184Y-41491000D01*
X45471772Y-41458297D01*
X45316900Y-41394147D01*
X45177519Y-41301015D01*
X45058985Y-41182481D01*
X44965853Y-41043100D01*
X44901703Y-40888228D01*
X44869000Y-40723816D01*
X44869000Y-40556184D01*
X44901703Y-40391772D01*
X44965853Y-40236900D01*
X45058985Y-40097519D01*
X45177519Y-39978985D01*
X45316900Y-39885853D01*
X45471772Y-39821703D01*
X45636184Y-39789000D01*
X45803816Y-39789000D01*
X45968228Y-39821703D01*
G37*
G36*
X30728228Y-37281703D02*
G01*
X30883100Y-37345853D01*
X31022481Y-37438985D01*
X31141015Y-37557519D01*
X31234147Y-37696900D01*
X31298297Y-37851772D01*
X31331000Y-38016184D01*
X31331000Y-38183816D01*
X31298297Y-38348228D01*
X31234147Y-38503100D01*
X31141015Y-38642481D01*
X31022481Y-38761015D01*
X30883100Y-38854147D01*
X30728228Y-38918297D01*
X30563816Y-38951000D01*
X30396184Y-38951000D01*
X30231772Y-38918297D01*
X30076900Y-38854147D01*
X29937519Y-38761015D01*
X29818985Y-38642481D01*
X29725853Y-38503100D01*
X29661703Y-38348228D01*
X29629000Y-38183816D01*
X29629000Y-38016184D01*
X29661703Y-37851772D01*
X29725853Y-37696900D01*
X29818985Y-37557519D01*
X29937519Y-37438985D01*
X30076900Y-37345853D01*
X30231772Y-37281703D01*
X30396184Y-37249000D01*
X30563816Y-37249000D01*
X30728228Y-37281703D01*
G37*
G36*
X45968228Y-37281703D02*
G01*
X46123100Y-37345853D01*
X46262481Y-37438985D01*
X46381015Y-37557519D01*
X46474147Y-37696900D01*
X46538297Y-37851772D01*
X46571000Y-38016184D01*
X46571000Y-38183816D01*
X46538297Y-38348228D01*
X46474147Y-38503100D01*
X46381015Y-38642481D01*
X46262481Y-38761015D01*
X46123100Y-38854147D01*
X45968228Y-38918297D01*
X45803816Y-38951000D01*
X45636184Y-38951000D01*
X45471772Y-38918297D01*
X45316900Y-38854147D01*
X45177519Y-38761015D01*
X45058985Y-38642481D01*
X44965853Y-38503100D01*
X44901703Y-38348228D01*
X44869000Y-38183816D01*
X44869000Y-38016184D01*
X44901703Y-37851772D01*
X44965853Y-37696900D01*
X45058985Y-37557519D01*
X45177519Y-37438985D01*
X45316900Y-37345853D01*
X45471772Y-37281703D01*
X45636184Y-37249000D01*
X45803816Y-37249000D01*
X45968228Y-37281703D01*
G37*
G36*
X55518600Y-35932989D02*
G01*
X55551652Y-35943015D01*
X55582103Y-35959292D01*
X55608799Y-35981201D01*
X55630708Y-36007897D01*
X55646985Y-36038348D01*
X55657011Y-36071400D01*
X55661000Y-36111903D01*
X55661000Y-37548097D01*
X55657011Y-37588600D01*
X55646985Y-37621652D01*
X55630708Y-37652103D01*
X55608799Y-37678799D01*
X55582103Y-37700708D01*
X55551652Y-37716985D01*
X55518600Y-37727011D01*
X55478097Y-37731000D01*
X53741903Y-37731000D01*
X53701400Y-37727011D01*
X53668348Y-37716985D01*
X53637897Y-37700708D01*
X53611201Y-37678799D01*
X53589292Y-37652103D01*
X53573015Y-37621652D01*
X53562989Y-37588600D01*
X53559000Y-37548097D01*
X53559000Y-36111903D01*
X53562989Y-36071400D01*
X53573015Y-36038348D01*
X53589292Y-36007897D01*
X53611201Y-35981201D01*
X53637897Y-35959292D01*
X53668348Y-35943015D01*
X53701400Y-35932989D01*
X53741903Y-35929000D01*
X55478097Y-35929000D01*
X55518600Y-35932989D01*
G37*
G36*
X21850442Y-35895518D02*
G01*
X21916627Y-35902037D01*
X22086466Y-35953557D01*
X22242991Y-36037222D01*
X22254630Y-36046774D01*
X22380186Y-36149814D01*
X22438618Y-36221015D01*
X22492778Y-36287009D01*
X22576443Y-36443534D01*
X22627963Y-36613373D01*
X22645359Y-36790000D01*
X22627963Y-36966627D01*
X22576443Y-37136466D01*
X22492778Y-37292991D01*
X22463448Y-37328729D01*
X22380186Y-37430186D01*
X22278729Y-37513448D01*
X22242991Y-37542778D01*
X22086466Y-37626443D01*
X21916627Y-37677963D01*
X21850443Y-37684481D01*
X21784260Y-37691000D01*
X21395740Y-37691000D01*
X21329557Y-37684481D01*
X21263373Y-37677963D01*
X21093534Y-37626443D01*
X20937009Y-37542778D01*
X20901271Y-37513448D01*
X20799814Y-37430186D01*
X20716552Y-37328729D01*
X20687222Y-37292991D01*
X20603557Y-37136466D01*
X20552037Y-36966627D01*
X20534641Y-36790000D01*
X20552037Y-36613373D01*
X20603557Y-36443534D01*
X20687222Y-36287009D01*
X20741382Y-36221015D01*
X20799814Y-36149814D01*
X20925370Y-36046774D01*
X20937009Y-36037222D01*
X21093534Y-35953557D01*
X21263373Y-35902037D01*
X21329558Y-35895518D01*
X21395740Y-35889000D01*
X21784260Y-35889000D01*
X21850442Y-35895518D01*
G37*
G36*
X30728228Y-34741703D02*
G01*
X30883100Y-34805853D01*
X31022481Y-34898985D01*
X31141015Y-35017519D01*
X31234147Y-35156900D01*
X31298297Y-35311772D01*
X31331000Y-35476184D01*
X31331000Y-35643816D01*
X31298297Y-35808228D01*
X31234147Y-35963100D01*
X31141015Y-36102481D01*
X31022481Y-36221015D01*
X30883100Y-36314147D01*
X30728228Y-36378297D01*
X30563816Y-36411000D01*
X30396184Y-36411000D01*
X30231772Y-36378297D01*
X30076900Y-36314147D01*
X29937519Y-36221015D01*
X29818985Y-36102481D01*
X29725853Y-35963100D01*
X29661703Y-35808228D01*
X29629000Y-35643816D01*
X29629000Y-35476184D01*
X29661703Y-35311772D01*
X29725853Y-35156900D01*
X29818985Y-35017519D01*
X29937519Y-34898985D01*
X30076900Y-34805853D01*
X30231772Y-34741703D01*
X30396184Y-34709000D01*
X30563816Y-34709000D01*
X30728228Y-34741703D01*
G37*
G36*
X45968228Y-34741703D02*
G01*
X46123100Y-34805853D01*
X46262481Y-34898985D01*
X46381015Y-35017519D01*
X46474147Y-35156900D01*
X46538297Y-35311772D01*
X46571000Y-35476184D01*
X46571000Y-35643816D01*
X46538297Y-35808228D01*
X46474147Y-35963100D01*
X46381015Y-36102481D01*
X46262481Y-36221015D01*
X46123100Y-36314147D01*
X45968228Y-36378297D01*
X45803816Y-36411000D01*
X45636184Y-36411000D01*
X45471772Y-36378297D01*
X45316900Y-36314147D01*
X45177519Y-36221015D01*
X45058985Y-36102481D01*
X44965853Y-35963100D01*
X44901703Y-35808228D01*
X44869000Y-35643816D01*
X44869000Y-35476184D01*
X44901703Y-35311772D01*
X44965853Y-35156900D01*
X45058985Y-35017519D01*
X45177519Y-34898985D01*
X45316900Y-34805853D01*
X45471772Y-34741703D01*
X45636184Y-34709000D01*
X45803816Y-34709000D01*
X45968228Y-34741703D01*
G37*
G36*
X54851583Y-33433661D02*
G01*
X54936627Y-33442037D01*
X55106466Y-33493557D01*
X55262991Y-33577222D01*
X55293550Y-33602301D01*
X55400186Y-33689814D01*
X55469395Y-33774147D01*
X55512778Y-33827009D01*
X55596443Y-33983534D01*
X55647963Y-34153373D01*
X55665359Y-34330000D01*
X55647963Y-34506627D01*
X55596443Y-34676466D01*
X55512778Y-34832991D01*
X55483448Y-34868729D01*
X55400186Y-34970186D01*
X55304637Y-35048600D01*
X55262991Y-35082778D01*
X55106466Y-35166443D01*
X54936627Y-35217963D01*
X54870442Y-35224482D01*
X54804260Y-35231000D01*
X54415740Y-35231000D01*
X54349558Y-35224482D01*
X54283373Y-35217963D01*
X54113534Y-35166443D01*
X53957009Y-35082778D01*
X53915363Y-35048600D01*
X53819814Y-34970186D01*
X53736552Y-34868729D01*
X53707222Y-34832991D01*
X53623557Y-34676466D01*
X53572037Y-34506627D01*
X53554641Y-34330000D01*
X53572037Y-34153373D01*
X53623557Y-33983534D01*
X53707222Y-33827009D01*
X53750605Y-33774147D01*
X53819814Y-33689814D01*
X53926450Y-33602301D01*
X53957009Y-33577222D01*
X54113534Y-33493557D01*
X54283373Y-33442037D01*
X54368417Y-33433661D01*
X54415740Y-33429000D01*
X54804260Y-33429000D01*
X54851583Y-33433661D01*
G37*
G36*
X22498600Y-33392989D02*
G01*
X22531652Y-33403015D01*
X22562103Y-33419292D01*
X22588799Y-33441201D01*
X22610708Y-33467897D01*
X22626985Y-33498348D01*
X22637011Y-33531400D01*
X22641000Y-33571903D01*
X22641000Y-35008097D01*
X22637011Y-35048600D01*
X22626985Y-35081652D01*
X22610708Y-35112103D01*
X22588799Y-35138799D01*
X22562103Y-35160708D01*
X22531652Y-35176985D01*
X22498600Y-35187011D01*
X22458097Y-35191000D01*
X20721903Y-35191000D01*
X20681400Y-35187011D01*
X20648348Y-35176985D01*
X20617897Y-35160708D01*
X20591201Y-35138799D01*
X20569292Y-35112103D01*
X20553015Y-35081652D01*
X20542989Y-35048600D01*
X20539000Y-35008097D01*
X20539000Y-33571903D01*
X20542989Y-33531400D01*
X20553015Y-33498348D01*
X20569292Y-33467897D01*
X20591201Y-33441201D01*
X20617897Y-33419292D01*
X20648348Y-33403015D01*
X20681400Y-33392989D01*
X20721903Y-33389000D01*
X22458097Y-33389000D01*
X22498600Y-33392989D01*
G37*
G36*
X30728228Y-32201703D02*
G01*
X30883100Y-32265853D01*
X31022481Y-32358985D01*
X31141015Y-32477519D01*
X31234147Y-32616900D01*
X31298297Y-32771772D01*
X31331000Y-32936184D01*
X31331000Y-33103816D01*
X31298297Y-33268228D01*
X31234147Y-33423100D01*
X31141015Y-33562481D01*
X31022481Y-33681015D01*
X30883100Y-33774147D01*
X30728228Y-33838297D01*
X30563816Y-33871000D01*
X30396184Y-33871000D01*
X30231772Y-33838297D01*
X30076900Y-33774147D01*
X29937519Y-33681015D01*
X29818985Y-33562481D01*
X29725853Y-33423100D01*
X29661703Y-33268228D01*
X29629000Y-33103816D01*
X29629000Y-32936184D01*
X29661703Y-32771772D01*
X29725853Y-32616900D01*
X29818985Y-32477519D01*
X29937519Y-32358985D01*
X30076900Y-32265853D01*
X30231772Y-32201703D01*
X30396184Y-32169000D01*
X30563816Y-32169000D01*
X30728228Y-32201703D01*
G37*
G36*
X45968228Y-32201703D02*
G01*
X46123100Y-32265853D01*
X46262481Y-32358985D01*
X46381015Y-32477519D01*
X46474147Y-32616900D01*
X46538297Y-32771772D01*
X46571000Y-32936184D01*
X46571000Y-33103816D01*
X46538297Y-33268228D01*
X46474147Y-33423100D01*
X46381015Y-33562481D01*
X46262481Y-33681015D01*
X46123100Y-33774147D01*
X45968228Y-33838297D01*
X45803816Y-33871000D01*
X45636184Y-33871000D01*
X45471772Y-33838297D01*
X45316900Y-33774147D01*
X45177519Y-33681015D01*
X45058985Y-33562481D01*
X44965853Y-33423100D01*
X44901703Y-33268228D01*
X44869000Y-33103816D01*
X44869000Y-32936184D01*
X44901703Y-32771772D01*
X44965853Y-32616900D01*
X45058985Y-32477519D01*
X45177519Y-32358985D01*
X45316900Y-32265853D01*
X45471772Y-32201703D01*
X45636184Y-32169000D01*
X45803816Y-32169000D01*
X45968228Y-32201703D01*
G37*
G36*
X30728228Y-29661703D02*
G01*
X30883100Y-29725853D01*
X31022481Y-29818985D01*
X31141015Y-29937519D01*
X31234147Y-30076900D01*
X31298297Y-30231772D01*
X31331000Y-30396184D01*
X31331000Y-30563816D01*
X31298297Y-30728228D01*
X31234147Y-30883100D01*
X31141015Y-31022481D01*
X31022481Y-31141015D01*
X30883100Y-31234147D01*
X30728228Y-31298297D01*
X30563816Y-31331000D01*
X30396184Y-31331000D01*
X30231772Y-31298297D01*
X30076900Y-31234147D01*
X29937519Y-31141015D01*
X29818985Y-31022481D01*
X29725853Y-30883100D01*
X29661703Y-30728228D01*
X29629000Y-30563816D01*
X29629000Y-30396184D01*
X29661703Y-30231772D01*
X29725853Y-30076900D01*
X29818985Y-29937519D01*
X29937519Y-29818985D01*
X30076900Y-29725853D01*
X30231772Y-29661703D01*
X30396184Y-29629000D01*
X30563816Y-29629000D01*
X30728228Y-29661703D01*
G37*
G36*
X45968228Y-29661703D02*
G01*
X46123100Y-29725853D01*
X46262481Y-29818985D01*
X46381015Y-29937519D01*
X46474147Y-30076900D01*
X46538297Y-30231772D01*
X46571000Y-30396184D01*
X46571000Y-30563816D01*
X46538297Y-30728228D01*
X46474147Y-30883100D01*
X46381015Y-31022481D01*
X46262481Y-31141015D01*
X46123100Y-31234147D01*
X45968228Y-31298297D01*
X45803816Y-31331000D01*
X45636184Y-31331000D01*
X45471772Y-31298297D01*
X45316900Y-31234147D01*
X45177519Y-31141015D01*
X45058985Y-31022481D01*
X44965853Y-30883100D01*
X44901703Y-30728228D01*
X44869000Y-30563816D01*
X44869000Y-30396184D01*
X44901703Y-30231772D01*
X44965853Y-30076900D01*
X45058985Y-29937519D01*
X45177519Y-29818985D01*
X45316900Y-29725853D01*
X45471772Y-29661703D01*
X45636184Y-29629000D01*
X45803816Y-29629000D01*
X45968228Y-29661703D01*
G37*
G36*
X30728228Y-27121703D02*
G01*
X30883100Y-27185853D01*
X31022481Y-27278985D01*
X31141015Y-27397519D01*
X31234147Y-27536900D01*
X31298297Y-27691772D01*
X31331000Y-27856184D01*
X31331000Y-28023816D01*
X31298297Y-28188228D01*
X31234147Y-28343100D01*
X31141015Y-28482481D01*
X31022481Y-28601015D01*
X30883100Y-28694147D01*
X30728228Y-28758297D01*
X30563816Y-28791000D01*
X30396184Y-28791000D01*
X30231772Y-28758297D01*
X30076900Y-28694147D01*
X29937519Y-28601015D01*
X29818985Y-28482481D01*
X29725853Y-28343100D01*
X29661703Y-28188228D01*
X29629000Y-28023816D01*
X29629000Y-27856184D01*
X29661703Y-27691772D01*
X29725853Y-27536900D01*
X29818985Y-27397519D01*
X29937519Y-27278985D01*
X30076900Y-27185853D01*
X30231772Y-27121703D01*
X30396184Y-27089000D01*
X30563816Y-27089000D01*
X30728228Y-27121703D01*
G37*
G36*
X45968228Y-27121703D02*
G01*
X46123100Y-27185853D01*
X46262481Y-27278985D01*
X46381015Y-27397519D01*
X46474147Y-27536900D01*
X46538297Y-27691772D01*
X46571000Y-27856184D01*
X46571000Y-28023816D01*
X46538297Y-28188228D01*
X46474147Y-28343100D01*
X46381015Y-28482481D01*
X46262481Y-28601015D01*
X46123100Y-28694147D01*
X45968228Y-28758297D01*
X45803816Y-28791000D01*
X45636184Y-28791000D01*
X45471772Y-28758297D01*
X45316900Y-28694147D01*
X45177519Y-28601015D01*
X45058985Y-28482481D01*
X44965853Y-28343100D01*
X44901703Y-28188228D01*
X44869000Y-28023816D01*
X44869000Y-27856184D01*
X44901703Y-27691772D01*
X44965853Y-27536900D01*
X45058985Y-27397519D01*
X45177519Y-27278985D01*
X45316900Y-27185853D01*
X45471772Y-27121703D01*
X45636184Y-27089000D01*
X45803816Y-27089000D01*
X45968228Y-27121703D01*
G37*
G36*
X55518600Y-25772989D02*
G01*
X55551652Y-25783015D01*
X55582103Y-25799292D01*
X55608799Y-25821201D01*
X55630708Y-25847897D01*
X55646985Y-25878348D01*
X55657011Y-25911400D01*
X55661000Y-25951903D01*
X55661000Y-27388097D01*
X55657011Y-27428600D01*
X55646985Y-27461652D01*
X55630708Y-27492103D01*
X55608799Y-27518799D01*
X55582103Y-27540708D01*
X55551652Y-27556985D01*
X55518600Y-27567011D01*
X55478097Y-27571000D01*
X53741903Y-27571000D01*
X53701400Y-27567011D01*
X53668348Y-27556985D01*
X53637897Y-27540708D01*
X53611201Y-27518799D01*
X53589292Y-27492103D01*
X53573015Y-27461652D01*
X53562989Y-27428600D01*
X53559000Y-27388097D01*
X53559000Y-25951903D01*
X53562989Y-25911400D01*
X53573015Y-25878348D01*
X53589292Y-25847897D01*
X53611201Y-25821201D01*
X53637897Y-25799292D01*
X53668348Y-25783015D01*
X53701400Y-25772989D01*
X53741903Y-25769000D01*
X55478097Y-25769000D01*
X55518600Y-25772989D01*
G37*
G36*
X21850443Y-25735519D02*
G01*
X21916627Y-25742037D01*
X22086466Y-25793557D01*
X22242991Y-25877222D01*
X22254630Y-25886774D01*
X22380186Y-25989814D01*
X22438618Y-26061015D01*
X22492778Y-26127009D01*
X22576443Y-26283534D01*
X22627963Y-26453373D01*
X22645359Y-26630000D01*
X22627963Y-26806627D01*
X22576443Y-26976466D01*
X22492778Y-27132991D01*
X22463448Y-27168729D01*
X22380186Y-27270186D01*
X22278729Y-27353448D01*
X22242991Y-27382778D01*
X22086466Y-27466443D01*
X21916627Y-27517963D01*
X21850442Y-27524482D01*
X21784260Y-27531000D01*
X21395740Y-27531000D01*
X21329558Y-27524482D01*
X21263373Y-27517963D01*
X21093534Y-27466443D01*
X20937009Y-27382778D01*
X20901271Y-27353448D01*
X20799814Y-27270186D01*
X20716552Y-27168729D01*
X20687222Y-27132991D01*
X20603557Y-26976466D01*
X20552037Y-26806627D01*
X20534641Y-26630000D01*
X20552037Y-26453373D01*
X20603557Y-26283534D01*
X20687222Y-26127009D01*
X20741382Y-26061015D01*
X20799814Y-25989814D01*
X20925370Y-25886774D01*
X20937009Y-25877222D01*
X21093534Y-25793557D01*
X21263373Y-25742037D01*
X21329558Y-25735518D01*
X21395740Y-25729000D01*
X21784260Y-25729000D01*
X21850443Y-25735519D01*
G37*
G36*
X45968228Y-24581703D02*
G01*
X46123100Y-24645853D01*
X46262481Y-24738985D01*
X46381015Y-24857519D01*
X46474147Y-24996900D01*
X46538297Y-25151772D01*
X46571000Y-25316184D01*
X46571000Y-25483816D01*
X46538297Y-25648228D01*
X46474147Y-25803100D01*
X46381015Y-25942481D01*
X46262481Y-26061015D01*
X46123100Y-26154147D01*
X45968228Y-26218297D01*
X45803816Y-26251000D01*
X45636184Y-26251000D01*
X45471772Y-26218297D01*
X45316900Y-26154147D01*
X45177519Y-26061015D01*
X45058985Y-25942481D01*
X44965853Y-25803100D01*
X44901703Y-25648228D01*
X44869000Y-25483816D01*
X44869000Y-25316184D01*
X44901703Y-25151772D01*
X44965853Y-24996900D01*
X45058985Y-24857519D01*
X45177519Y-24738985D01*
X45316900Y-24645853D01*
X45471772Y-24581703D01*
X45636184Y-24549000D01*
X45803816Y-24549000D01*
X45968228Y-24581703D01*
G37*
G36*
X30728228Y-24581703D02*
G01*
X30883100Y-24645853D01*
X31022481Y-24738985D01*
X31141015Y-24857519D01*
X31234147Y-24996900D01*
X31298297Y-25151772D01*
X31331000Y-25316184D01*
X31331000Y-25483816D01*
X31298297Y-25648228D01*
X31234147Y-25803100D01*
X31141015Y-25942481D01*
X31022481Y-26061015D01*
X30883100Y-26154147D01*
X30728228Y-26218297D01*
X30563816Y-26251000D01*
X30396184Y-26251000D01*
X30231772Y-26218297D01*
X30076900Y-26154147D01*
X29937519Y-26061015D01*
X29818985Y-25942481D01*
X29725853Y-25803100D01*
X29661703Y-25648228D01*
X29629000Y-25483816D01*
X29629000Y-25316184D01*
X29661703Y-25151772D01*
X29725853Y-24996900D01*
X29818985Y-24857519D01*
X29937519Y-24738985D01*
X30076900Y-24645853D01*
X30231772Y-24581703D01*
X30396184Y-24549000D01*
X30563816Y-24549000D01*
X30728228Y-24581703D01*
G37*
G36*
X54851583Y-23273661D02*
G01*
X54936627Y-23282037D01*
X55106466Y-23333557D01*
X55262991Y-23417222D01*
X55293550Y-23442301D01*
X55400186Y-23529814D01*
X55469395Y-23614147D01*
X55512778Y-23667009D01*
X55596443Y-23823534D01*
X55647963Y-23993373D01*
X55665359Y-24170000D01*
X55647963Y-24346627D01*
X55596443Y-24516466D01*
X55512778Y-24672991D01*
X55483448Y-24708729D01*
X55400186Y-24810186D01*
X55304637Y-24888600D01*
X55262991Y-24922778D01*
X55106466Y-25006443D01*
X54936627Y-25057963D01*
X54870442Y-25064482D01*
X54804260Y-25071000D01*
X54415740Y-25071000D01*
X54349558Y-25064482D01*
X54283373Y-25057963D01*
X54113534Y-25006443D01*
X53957009Y-24922778D01*
X53915363Y-24888600D01*
X53819814Y-24810186D01*
X53736552Y-24708729D01*
X53707222Y-24672991D01*
X53623557Y-24516466D01*
X53572037Y-24346627D01*
X53554641Y-24170000D01*
X53572037Y-23993373D01*
X53623557Y-23823534D01*
X53707222Y-23667009D01*
X53750605Y-23614147D01*
X53819814Y-23529814D01*
X53926450Y-23442301D01*
X53957009Y-23417222D01*
X54113534Y-23333557D01*
X54283373Y-23282037D01*
X54368417Y-23273661D01*
X54415740Y-23269000D01*
X54804260Y-23269000D01*
X54851583Y-23273661D01*
G37*
G36*
X22498600Y-23232989D02*
G01*
X22531652Y-23243015D01*
X22562103Y-23259292D01*
X22588799Y-23281201D01*
X22610708Y-23307897D01*
X22626985Y-23338348D01*
X22637011Y-23371400D01*
X22641000Y-23411903D01*
X22641000Y-24848097D01*
X22637011Y-24888600D01*
X22626985Y-24921652D01*
X22610708Y-24952103D01*
X22588799Y-24978799D01*
X22562103Y-25000708D01*
X22531652Y-25016985D01*
X22498600Y-25027011D01*
X22458097Y-25031000D01*
X20721903Y-25031000D01*
X20681400Y-25027011D01*
X20648348Y-25016985D01*
X20617897Y-25000708D01*
X20591201Y-24978799D01*
X20569292Y-24952103D01*
X20553015Y-24921652D01*
X20542989Y-24888600D01*
X20539000Y-24848097D01*
X20539000Y-23411903D01*
X20542989Y-23371400D01*
X20553015Y-23338348D01*
X20569292Y-23307897D01*
X20591201Y-23281201D01*
X20617897Y-23259292D01*
X20648348Y-23243015D01*
X20681400Y-23232989D01*
X20721903Y-23229000D01*
X22458097Y-23229000D01*
X22498600Y-23232989D01*
G37*
G36*
X30728228Y-22041703D02*
G01*
X30883100Y-22105853D01*
X31022481Y-22198985D01*
X31141015Y-22317519D01*
X31234147Y-22456900D01*
X31298297Y-22611772D01*
X31331000Y-22776184D01*
X31331000Y-22943816D01*
X31298297Y-23108228D01*
X31234147Y-23263100D01*
X31141015Y-23402481D01*
X31022481Y-23521015D01*
X30883100Y-23614147D01*
X30728228Y-23678297D01*
X30563816Y-23711000D01*
X30396184Y-23711000D01*
X30231772Y-23678297D01*
X30076900Y-23614147D01*
X29937519Y-23521015D01*
X29818985Y-23402481D01*
X29725853Y-23263100D01*
X29661703Y-23108228D01*
X29629000Y-22943816D01*
X29629000Y-22776184D01*
X29661703Y-22611772D01*
X29725853Y-22456900D01*
X29818985Y-22317519D01*
X29937519Y-22198985D01*
X30076900Y-22105853D01*
X30231772Y-22041703D01*
X30396184Y-22009000D01*
X30563816Y-22009000D01*
X30728228Y-22041703D01*
G37*
G36*
X45968228Y-22041703D02*
G01*
X46123100Y-22105853D01*
X46262481Y-22198985D01*
X46381015Y-22317519D01*
X46474147Y-22456900D01*
X46538297Y-22611772D01*
X46571000Y-22776184D01*
X46571000Y-22943816D01*
X46538297Y-23108228D01*
X46474147Y-23263100D01*
X46381015Y-23402481D01*
X46262481Y-23521015D01*
X46123100Y-23614147D01*
X45968228Y-23678297D01*
X45803816Y-23711000D01*
X45636184Y-23711000D01*
X45471772Y-23678297D01*
X45316900Y-23614147D01*
X45177519Y-23521015D01*
X45058985Y-23402481D01*
X44965853Y-23263100D01*
X44901703Y-23108228D01*
X44869000Y-22943816D01*
X44869000Y-22776184D01*
X44901703Y-22611772D01*
X44965853Y-22456900D01*
X45058985Y-22317519D01*
X45177519Y-22198985D01*
X45316900Y-22105853D01*
X45471772Y-22041703D01*
X45636184Y-22009000D01*
X45803816Y-22009000D01*
X45968228Y-22041703D01*
G37*
G36*
X31331000Y-21171000D02*
G01*
X29629000Y-21171000D01*
X29629000Y-19469000D01*
X31331000Y-19469000D01*
X31331000Y-21171000D01*
G37*
G36*
X45968228Y-19501703D02*
G01*
X46123100Y-19565853D01*
X46262481Y-19658985D01*
X46381015Y-19777519D01*
X46474147Y-19916900D01*
X46538297Y-20071772D01*
X46571000Y-20236184D01*
X46571000Y-20403816D01*
X46538297Y-20568228D01*
X46474147Y-20723100D01*
X46381015Y-20862481D01*
X46262481Y-20981015D01*
X46123100Y-21074147D01*
X45968228Y-21138297D01*
X45803816Y-21171000D01*
X45636184Y-21171000D01*
X45471772Y-21138297D01*
X45316900Y-21074147D01*
X45177519Y-20981015D01*
X45058985Y-20862481D01*
X44965853Y-20723100D01*
X44901703Y-20568228D01*
X44869000Y-20403816D01*
X44869000Y-20236184D01*
X44901703Y-20071772D01*
X44965853Y-19916900D01*
X45058985Y-19777519D01*
X45177519Y-19658985D01*
X45316900Y-19565853D01*
X45471772Y-19501703D01*
X45636184Y-19469000D01*
X45803816Y-19469000D01*
X45968228Y-19501703D01*
G37*
G36*
X17144239Y-13321467D02*
G01*
X17458282Y-13383934D01*
X18049926Y-13629001D01*
X18582392Y-13984784D01*
X19035216Y-14437608D01*
X19390999Y-14970074D01*
X19636066Y-15561718D01*
X19636066Y-15561719D01*
X19761000Y-16189803D01*
X19761000Y-16830197D01*
X19698533Y-17144239D01*
X19636066Y-17458282D01*
X19390999Y-18049926D01*
X19035216Y-18582392D01*
X18582392Y-19035216D01*
X18049926Y-19390999D01*
X17458282Y-19636066D01*
X17343060Y-19658985D01*
X16830197Y-19761000D01*
X16189803Y-19761000D01*
X15676940Y-19658985D01*
X15561718Y-19636066D01*
X14970074Y-19390999D01*
X14437608Y-19035216D01*
X13984784Y-18582392D01*
X13629001Y-18049926D01*
X13383934Y-17458282D01*
X13321467Y-17144239D01*
X13259000Y-16830197D01*
X13259000Y-16189803D01*
X13383934Y-15561719D01*
X13383934Y-15561718D01*
X13629001Y-14970074D01*
X13984784Y-14437608D01*
X14437608Y-13984784D01*
X14970074Y-13629001D01*
X15561718Y-13383934D01*
X15875761Y-13321467D01*
X16189803Y-13259000D01*
X16830197Y-13259000D01*
X17144239Y-13321467D01*
G37*
G36*
X60324239Y-13321467D02*
G01*
X60638282Y-13383934D01*
X61229926Y-13629001D01*
X61762392Y-13984784D01*
X62215216Y-14437608D01*
X62570999Y-14970074D01*
X62816066Y-15561718D01*
X62816066Y-15561719D01*
X62941000Y-16189803D01*
X62941000Y-16830197D01*
X62878533Y-17144239D01*
X62816066Y-17458282D01*
X62570999Y-18049926D01*
X62215216Y-18582392D01*
X61762392Y-19035216D01*
X61229926Y-19390999D01*
X60638282Y-19636066D01*
X60523060Y-19658985D01*
X60010197Y-19761000D01*
X59369803Y-19761000D01*
X58856940Y-19658985D01*
X58741718Y-19636066D01*
X58150074Y-19390999D01*
X57617608Y-19035216D01*
X57164784Y-18582392D01*
X56809001Y-18049926D01*
X56563934Y-17458282D01*
X56501467Y-17144239D01*
X56439000Y-16830197D01*
X56439000Y-16189803D01*
X56563934Y-15561719D01*
X56563934Y-15561718D01*
X56809001Y-14970074D01*
X57164784Y-14437608D01*
X57617608Y-13984784D01*
X58150074Y-13629001D01*
X58741718Y-13383934D01*
X59055761Y-13321467D01*
X59369803Y-13259000D01*
X60010197Y-13259000D01*
X60324239Y-13321467D01*
G37*
M02*
