M48
; DRILL file {KiCad (5.1.5)-3} date 2020/03/31 15:25:33
; FORMAT={-:-/ absolute / metric / decimal}
; #@! TF.CreationDate,2020-03-31T15:25:33+09:00
; #@! TF.GenerationSoftware,Kicad,Pcbnew,(5.1.5)-3
; #@! TF.FileFunction,Plated,1,2,PTH
FMAT,2
METRIC
T1C0.400
T2C0.500
T3C1.000
T4C1.100
T5C3.200
%
G90
G05
T1
X35.56Y-43.18
X35.56Y-48.26
X38.1Y-44.45
X38.1Y-46.99
X40.64Y-43.18
X40.64Y-48.26
T2
X14.11Y-62.23
X14.813Y-60.533
X14.813Y-63.927
X16.51Y-59.83
X16.51Y-64.63
X18.207Y-60.533
X18.207Y-63.927
X18.91Y-62.23
X57.29Y-62.23
X57.993Y-60.533
X57.993Y-63.927
X59.69Y-59.83
X59.69Y-64.63
X61.387Y-60.533
X61.387Y-63.927
X62.09Y-62.23
X57.29Y-16.51
X57.993Y-14.813
X57.993Y-18.207
X59.69Y-14.11
X59.69Y-18.91
X61.387Y-14.813
X61.387Y-18.207
X62.09Y-16.51
X14.11Y-16.51
X14.813Y-14.813
X14.813Y-18.207
X16.51Y-14.11
X16.51Y-18.91
X18.207Y-14.813
X18.207Y-18.207
X18.91Y-16.51
T3
X54.61Y-34.33
X54.61Y-36.83
X36.83Y-57.15
X39.33Y-57.15
X54.61Y-44.49
X54.61Y-46.99
X24.13Y-57.15
X26.63Y-57.15
X21.59Y-44.45
X21.59Y-46.95
X21.59Y-34.29
X21.59Y-36.79
X21.59Y-24.13
X21.59Y-26.63
X54.61Y-24.17
X54.61Y-26.67
X49.53Y-57.15
X52.03Y-57.15
T4
X30.48Y-20.32
X30.48Y-22.86
X30.48Y-25.4
X30.48Y-27.94
X30.48Y-30.48
X30.48Y-33.02
X30.48Y-35.56
X30.48Y-38.1
X30.48Y-40.64
X30.48Y-43.18
X30.48Y-45.72
X30.48Y-48.26
X45.72Y-20.32
X45.72Y-22.86
X45.72Y-25.4
X45.72Y-27.94
X45.72Y-30.48
X45.72Y-33.02
X45.72Y-35.56
X45.72Y-38.1
X45.72Y-40.64
X45.72Y-43.18
X45.72Y-45.72
X45.72Y-48.26
T5
X16.51Y-62.23
X59.69Y-62.23
X59.69Y-16.51
X16.51Y-16.51
T0
M30
